<mxfile host="app.diagrams.net" modified="2021-02-07T02:35:29.096Z" agent="5.0 (Windows NT 6.3; Win64; x64) AppleWebKit/537.36 (KHTML, like Gecko) Chrome/86.0.4240.193 Safari/537.36" etag="aj71dX31npdxKBZg7CYg" version="14.2.9" type="github">
  <diagram id="oiMsc49bIs4h_sgpE-3C" name="第 1 页">
    <mxGraphModel dx="1422" dy="738" grid="1" gridSize="10" guides="1" tooltips="1" connect="1" arrows="1" fold="1" page="1" pageScale="1" pageWidth="1169" pageHeight="827" math="0" shadow="0">
      <root>
        <mxCell id="0" />
        <mxCell id="1" parent="0" />
        <mxCell id="ETDHeams_zEWxF7L-lzj-697" value="" style="rounded=1;whiteSpace=wrap;html=1;fontSize=13;arcSize=5;fontFamily=宋体;strokeColor=#FFFFFF;fillColor=#ffc61a;" parent="1" vertex="1">
          <mxGeometry x="924" y="147" width="85" height="813" as="geometry" />
        </mxCell>
        <mxCell id="ETDHeams_zEWxF7L-lzj-698" value="" style="rounded=1;whiteSpace=wrap;html=1;fontSize=15;arcSize=3;fontFamily=宋体;strokeColor=#77c3f2;fillColor=#30588c;" parent="1" vertex="1">
          <mxGeometry x="166" y="778" width="750" height="180" as="geometry" />
        </mxCell>
        <mxCell id="ETDHeams_zEWxF7L-lzj-699" value="" style="rounded=0;whiteSpace=wrap;html=1;fontFamily=宋体;fillColor=#b6dbf2;strokeColor=#B6DBF2;" parent="1" vertex="1">
          <mxGeometry x="240" y="877" width="655" height="65" as="geometry" />
        </mxCell>
        <mxCell id="ETDHeams_zEWxF7L-lzj-700" value="" style="image;html=1;image=img/lib/clip_art/computers/Server_Rack_128x128.png;fontFamily=宋体;" parent="1" vertex="1">
          <mxGeometry x="312" y="885.5" width="80" height="30" as="geometry" />
        </mxCell>
        <mxCell id="ETDHeams_zEWxF7L-lzj-701" value="" style="image;html=1;image=img/lib/clip_art/networking/Switch_128x128.png;fontFamily=宋体;" parent="1" vertex="1">
          <mxGeometry x="740" y="890.5" width="80" height="20" as="geometry" />
        </mxCell>
        <mxCell id="ETDHeams_zEWxF7L-lzj-702" value="" style="shape=mxgraph.cisco.storage.relational_database;html=1;pointerEvents=1;dashed=0;fillColor=#036897;strokeColor=#ffffff;strokeWidth=2;verticalLabelPosition=bottom;verticalAlign=top;align=center;outlineConnect=0;fontFamily=宋体;" parent="1" vertex="1">
          <mxGeometry x="546" y="885.4999999999997" width="41" height="30" as="geometry" />
        </mxCell>
        <mxCell id="ETDHeams_zEWxF7L-lzj-703" value="主机" style="text;html=1;strokeColor=none;align=center;verticalAlign=middle;whiteSpace=wrap;rounded=0;fontFamily=宋体;fontSize=15;fontStyle=1;fillColor=#FFFFFF;fontColor=#30588C;" parent="1" vertex="1">
          <mxGeometry x="332" y="917.5" width="40" height="20" as="geometry" />
        </mxCell>
        <mxCell id="ETDHeams_zEWxF7L-lzj-704" value="存储" style="text;html=1;strokeColor=none;align=center;verticalAlign=middle;whiteSpace=wrap;rounded=0;fontFamily=宋体;fontSize=15;fontStyle=1;fillColor=#FFFFFF;fontColor=#30588C;" parent="1" vertex="1">
          <mxGeometry x="546" y="917.5" width="40" height="20" as="geometry" />
        </mxCell>
        <mxCell id="ETDHeams_zEWxF7L-lzj-705" value="网络" style="text;html=1;strokeColor=none;align=center;verticalAlign=middle;whiteSpace=wrap;rounded=0;fontFamily=宋体;fontSize=15;fontStyle=1;fontColor=#30588C;fillColor=#FFFFFF;" parent="1" vertex="1">
          <mxGeometry x="760" y="917.5" width="40" height="20" as="geometry" />
        </mxCell>
        <mxCell id="ETDHeams_zEWxF7L-lzj-706" value="" style="rounded=1;whiteSpace=wrap;html=1;arcSize=2;fontFamily=宋体;fillColor=#fe9900;strokeColor=#FE9900;" parent="1" vertex="1">
          <mxGeometry x="166" y="579" width="750" height="190" as="geometry" />
        </mxCell>
        <mxCell id="ETDHeams_zEWxF7L-lzj-707" value="基础地理数据" style="shape=cylinder3;whiteSpace=wrap;html=1;boundedLbl=1;backgroundOutline=1;size=15;fontFamily=宋体;fontSize=15;fontColor=#FE9900;fontStyle=1" parent="1" vertex="1">
          <mxGeometry x="243" y="642" width="113" height="54" as="geometry" />
        </mxCell>
        <mxCell id="ETDHeams_zEWxF7L-lzj-708" value="专题数据" style="shape=cylinder3;whiteSpace=wrap;html=1;boundedLbl=1;backgroundOutline=1;size=15;fontFamily=宋体;fontSize=15;fontStyle=1;fontColor=#FE9900;" parent="1" vertex="1">
          <mxGeometry x="416.5" y="642" width="113" height="54" as="geometry" />
        </mxCell>
        <mxCell id="ETDHeams_zEWxF7L-lzj-709" value="三维模型数据" style="shape=cylinder3;whiteSpace=wrap;html=1;boundedLbl=1;backgroundOutline=1;size=15;fontFamily=宋体;fontSize=15;fontColor=#FE9900;fontStyle=1" parent="1" vertex="1">
          <mxGeometry x="587" y="642" width="113" height="54" as="geometry" />
        </mxCell>
        <mxCell id="ETDHeams_zEWxF7L-lzj-710" value="多媒体数据" style="shape=cylinder3;whiteSpace=wrap;html=1;boundedLbl=1;backgroundOutline=1;size=15;fontFamily=宋体;fontSize=15;fontColor=#FE9900;fontStyle=1" parent="1" vertex="1">
          <mxGeometry x="762" y="642" width="113" height="54" as="geometry" />
        </mxCell>
        <mxCell id="ETDHeams_zEWxF7L-lzj-711" value="气象数据" style="shape=cylinder3;whiteSpace=wrap;html=1;boundedLbl=1;backgroundOutline=1;size=15;fontFamily=宋体;fontSize=15;fontColor=#FE9900;fontStyle=1" parent="1" vertex="1">
          <mxGeometry x="243" y="704" width="113" height="54" as="geometry" />
        </mxCell>
        <mxCell id="ETDHeams_zEWxF7L-lzj-712" value="水文数据" style="shape=cylinder3;whiteSpace=wrap;html=1;boundedLbl=1;backgroundOutline=1;size=15;fontFamily=宋体;fontSize=15;fontColor=#FE9900;fontStyle=1" parent="1" vertex="1">
          <mxGeometry x="416.5" y="704" width="113" height="54" as="geometry" />
        </mxCell>
        <mxCell id="ETDHeams_zEWxF7L-lzj-713" value="入河排污口数据" style="shape=cylinder3;whiteSpace=wrap;html=1;boundedLbl=1;backgroundOutline=1;size=15;fontFamily=宋体;fontSize=14;fontColor=#FE9900;fontStyle=1" parent="1" vertex="1">
          <mxGeometry x="587" y="704" width="113" height="54" as="geometry" />
        </mxCell>
        <mxCell id="ETDHeams_zEWxF7L-lzj-714" value="数据汇聚" style="rounded=0;whiteSpace=wrap;html=1;fontSize=15;fontFamily=宋体;strokeColor=#FFFFFF;fontColor=#FE9900;fontStyle=1" parent="1" vertex="1">
          <mxGeometry x="245" y="592" width="109" height="35" as="geometry" />
        </mxCell>
        <mxCell id="ETDHeams_zEWxF7L-lzj-715" value="数据清洗" style="rounded=0;whiteSpace=wrap;html=1;fontSize=15;fontFamily=宋体;fontColor=#FE9900;fontStyle=1;strokeColor=#FFFFFF;" parent="1" vertex="1">
          <mxGeometry x="417" y="592" width="109" height="35" as="geometry" />
        </mxCell>
        <mxCell id="ETDHeams_zEWxF7L-lzj-716" value="数据管理" style="rounded=0;whiteSpace=wrap;html=1;fontSize=15;fontFamily=宋体;fontColor=#FE9900;fontStyle=1;strokeColor=#FFFFFF;" parent="1" vertex="1">
          <mxGeometry x="764" y="592" width="109" height="35" as="geometry" />
        </mxCell>
        <mxCell id="ETDHeams_zEWxF7L-lzj-717" value="目录与元数据" style="shape=cylinder3;whiteSpace=wrap;html=1;boundedLbl=1;backgroundOutline=1;size=15;fontFamily=宋体;fontSize=15;fontColor=#FE9900;fontStyle=1" parent="1" vertex="1">
          <mxGeometry x="762" y="704" width="113" height="54" as="geometry" />
        </mxCell>
        <mxCell id="ETDHeams_zEWxF7L-lzj-718" value="" style="rounded=1;whiteSpace=wrap;html=1;arcSize=2;fontFamily=宋体;strokeColor=#85bcbf;fillColor=#85BCBF;" parent="1" vertex="1">
          <mxGeometry x="166" y="147" width="750" height="221" as="geometry" />
        </mxCell>
        <mxCell id="ETDHeams_zEWxF7L-lzj-719" value="" style="rounded=0;whiteSpace=wrap;html=1;fontFamily=宋体;fillColor=#B2BFBE;strokeColor=#B2BFBE;" parent="1" vertex="1">
          <mxGeometry x="234" y="209" width="455" height="144" as="geometry" />
        </mxCell>
        <mxCell id="ETDHeams_zEWxF7L-lzj-720" value="入河排污口监控" style="rounded=0;whiteSpace=wrap;html=1;fontFamily=宋体;fontSize=13;fillColor=#FFFFFF;strokeColor=#FFFFFF;fontStyle=1;fontColor=#85BCBF;" parent="1" vertex="1">
          <mxGeometry x="246" y="250" width="100" height="25" as="geometry" />
        </mxCell>
        <mxCell id="ETDHeams_zEWxF7L-lzj-721" value="取水口监管" style="rounded=0;whiteSpace=wrap;html=1;fontFamily=宋体;fontSize=13;fontStyle=1;strokeColor=#FFFFFF;fontColor=#85BCBF;" parent="1" vertex="1">
          <mxGeometry x="357" y="250" width="100" height="25" as="geometry" />
        </mxCell>
        <mxCell id="ETDHeams_zEWxF7L-lzj-722" value="水功能区管理" style="rounded=0;whiteSpace=wrap;html=1;fontFamily=宋体;fontSize=13;strokeColor=#FFFFFF;fontStyle=1;fontColor=#85BCBF;" parent="1" vertex="1">
          <mxGeometry x="468" y="250" width="100" height="25" as="geometry" />
        </mxCell>
        <mxCell id="ETDHeams_zEWxF7L-lzj-723" value="岸线管理" style="rounded=0;whiteSpace=wrap;html=1;fontFamily=宋体;fontSize=13;strokeColor=#FFFFFF;fontStyle=1;fontColor=#85BCBF;" parent="1" vertex="1">
          <mxGeometry x="578" y="250" width="100" height="25" as="geometry" />
        </mxCell>
        <mxCell id="ETDHeams_zEWxF7L-lzj-724" value="水资源优化配置" style="rounded=0;whiteSpace=wrap;html=1;fontFamily=宋体;fontSize=13;fontStyle=1;strokeColor=#FFFFFF;fontColor=#85BCBF;" parent="1" vertex="1">
          <mxGeometry x="246" y="283" width="100" height="25" as="geometry" />
        </mxCell>
        <mxCell id="ETDHeams_zEWxF7L-lzj-725" value="水库群联合调度" style="rounded=0;whiteSpace=wrap;html=1;fontFamily=宋体;fontSize=13;strokeColor=#FFFFFF;fontStyle=1;fontColor=#85BCBF;" parent="1" vertex="1">
          <mxGeometry x="357" y="283" width="100" height="25" as="geometry" />
        </mxCell>
        <mxCell id="ETDHeams_zEWxF7L-lzj-726" value="水生态环境模拟" style="rounded=0;whiteSpace=wrap;html=1;fontFamily=宋体;fontSize=13;fontStyle=1;strokeColor=#FFFFFF;fontColor=#85BCBF;" parent="1" vertex="1">
          <mxGeometry x="468" y="283" width="100" height="25" as="geometry" />
        </mxCell>
        <mxCell id="ETDHeams_zEWxF7L-lzj-727" value="饮用水源地保护" style="rounded=0;whiteSpace=wrap;html=1;fontFamily=宋体;fontSize=13;strokeColor=#FFFFFF;fontStyle=1;fontColor=#85BCBF;" parent="1" vertex="1">
          <mxGeometry x="578" y="283" width="100" height="25" as="geometry" />
        </mxCell>
        <mxCell id="ETDHeams_zEWxF7L-lzj-728" value="沿江化工企业、码头、采砂管理" style="rounded=0;whiteSpace=wrap;html=1;fontFamily=宋体;fontSize=13;fontStyle=1;strokeColor=#FFFFFF;fontColor=#85BCBF;" parent="1" vertex="1">
          <mxGeometry x="357" y="316" width="211" height="25" as="geometry" />
        </mxCell>
        <mxCell id="ETDHeams_zEWxF7L-lzj-729" value="&lt;font style=&quot;font-size: 13px;&quot;&gt;突发事件应急管理&lt;/font&gt;" style="rounded=0;whiteSpace=wrap;html=1;fontFamily=宋体;fontSize=13;fontStyle=1;strokeColor=#FFFFFF;fontColor=#85BCBF;" parent="1" vertex="1">
          <mxGeometry x="246" y="316" width="100" height="25" as="geometry" />
        </mxCell>
        <mxCell id="ETDHeams_zEWxF7L-lzj-730" value="... ..." style="rounded=0;whiteSpace=wrap;html=1;fontStyle=1;fontSize=15;strokeColor=#FFFFFF;fontFamily=宋体;fontColor=#85BCBF;" parent="1" vertex="1">
          <mxGeometry x="579" y="316" width="100" height="25" as="geometry" />
        </mxCell>
        <mxCell id="ETDHeams_zEWxF7L-lzj-731" value="" style="rounded=0;whiteSpace=wrap;html=1;fontSize=15;fontFamily=宋体;fillColor=#B2BFBE;strokeColor=#B2BFBE;" parent="1" vertex="1">
          <mxGeometry x="701" y="209" width="195" height="144" as="geometry" />
        </mxCell>
        <mxCell id="ETDHeams_zEWxF7L-lzj-732" value="" style="rounded=1;whiteSpace=wrap;html=1;arcSize=2;fontFamily=宋体;strokeColor=#0099cb;fillColor=#0099cb;" parent="1" vertex="1">
          <mxGeometry x="166" y="377" width="750" height="193" as="geometry" />
        </mxCell>
        <mxCell id="ETDHeams_zEWxF7L-lzj-733" value="" style="rounded=0;whiteSpace=wrap;html=1;fontSize=15;fontFamily=宋体;fillColor=#77c3f2;strokeColor=#77C3F2;" parent="1" vertex="1">
          <mxGeometry x="235" y="390" width="385" height="118" as="geometry" />
        </mxCell>
        <mxCell id="ETDHeams_zEWxF7L-lzj-734" value="地理数据服务" style="rounded=0;whiteSpace=wrap;html=1;fillColor=#FFFFFF;fontSize=15;fontFamily=宋体;strokeColor=#FFFFFF;fontColor=#0099CB;fontStyle=1" parent="1" vertex="1">
          <mxGeometry x="255" y="434" width="100" height="25" as="geometry" />
        </mxCell>
        <mxCell id="ETDHeams_zEWxF7L-lzj-735" value="空间分析服务" style="rounded=0;whiteSpace=wrap;html=1;fillColor=#FFFFFF;fontSize=15;fontFamily=宋体;fontColor=#0099CB;fontStyle=1;strokeColor=#FFFFFF;" parent="1" vertex="1">
          <mxGeometry x="377" y="434" width="100" height="25" as="geometry" />
        </mxCell>
        <mxCell id="ETDHeams_zEWxF7L-lzj-736" value="" style="rounded=0;whiteSpace=wrap;html=1;fontSize=15;fontFamily=宋体;fillColor=#77C3F2;strokeColor=#77C3F2;" parent="1" vertex="1">
          <mxGeometry x="635" y="390" width="264" height="165" as="geometry" />
        </mxCell>
        <mxCell id="ETDHeams_zEWxF7L-lzj-737" value="应用管理" style="rounded=0;whiteSpace=wrap;html=1;fillColor=#FFFFFF;fontSize=15;fontFamily=宋体;fontColor=#0099CB;fontStyle=1;strokeColor=#FFFFFF;" parent="1" vertex="1">
          <mxGeometry x="657" y="459" width="100" height="25" as="geometry" />
        </mxCell>
        <mxCell id="ETDHeams_zEWxF7L-lzj-738" value="元数据服务" style="rounded=0;whiteSpace=wrap;html=1;fillColor=#FFFFFF;fontSize=15;fontFamily=宋体;strokeColor=#FFFFFF;fontStyle=1;fontColor=#0099CB;" parent="1" vertex="1">
          <mxGeometry x="499" y="434" width="100" height="25" as="geometry" />
        </mxCell>
        <mxCell id="ETDHeams_zEWxF7L-lzj-739" value="应用市场管理" style="rounded=0;whiteSpace=wrap;html=1;fillColor=#FFFFFF;fontSize=15;fontFamily=宋体;fontColor=#0099CB;fontStyle=1;strokeColor=#FFFFFF;" parent="1" vertex="1">
          <mxGeometry x="780" y="459" width="100" height="25" as="geometry" />
        </mxCell>
        <mxCell id="ETDHeams_zEWxF7L-lzj-740" value="多租户管理" style="rounded=0;whiteSpace=wrap;html=1;fillColor=#FFFFFF;fontSize=15;fontFamily=宋体;fontStyle=1;fontColor=#0099CB;strokeColor=#FFFFFF;" parent="1" vertex="1">
          <mxGeometry x="657" y="490" width="100" height="25" as="geometry" />
        </mxCell>
        <mxCell id="ETDHeams_zEWxF7L-lzj-741" value="资源管理" style="rounded=0;whiteSpace=wrap;html=1;fillColor=#FFFFFF;fontSize=15;fontFamily=宋体;fontColor=#0099CB;fontStyle=1;strokeColor=#FFFFFF;" parent="1" vertex="1">
          <mxGeometry x="780" y="490" width="100" height="25" as="geometry" />
        </mxCell>
        <mxCell id="ETDHeams_zEWxF7L-lzj-742" value="容器管理" style="rounded=0;whiteSpace=wrap;html=1;fillColor=#FFFFFF;fontSize=15;fontFamily=宋体;fontColor=#0099CB;fontStyle=1;strokeColor=#FFFFFF;" parent="1" vertex="1">
          <mxGeometry x="657" y="523" width="100" height="25" as="geometry" />
        </mxCell>
        <mxCell id="ETDHeams_zEWxF7L-lzj-743" value="监控管理" style="rounded=0;whiteSpace=wrap;html=1;fillColor=#FFFFFF;fontSize=15;fontFamily=宋体;fontColor=#0099CB;fontStyle=1;strokeColor=#FFFFFF;" parent="1" vertex="1">
          <mxGeometry x="780" y="523" width="100" height="25" as="geometry" />
        </mxCell>
        <mxCell id="ETDHeams_zEWxF7L-lzj-744" value="长江大保护服务" style="rounded=0;whiteSpace=wrap;html=1;fontSize=16;fontFamily=宋体;fillColor=#77C3F2;strokeColor=#77C3F2;fontColor=#FFFFFF;fontStyle=1" parent="1" vertex="1">
          <mxGeometry x="370" y="393" width="123.5" height="30" as="geometry" />
        </mxCell>
        <mxCell id="ETDHeams_zEWxF7L-lzj-745" value="云管理服务" style="rounded=1;whiteSpace=wrap;html=1;fontSize=16;fontFamily=宋体;strokeColor=#77C3F2;fillColor=#77C3F2;fontStyle=1;fontColor=#FFFFFF;" parent="1" vertex="1">
          <mxGeometry x="707" y="394" width="120" height="29" as="geometry" />
        </mxCell>
        <mxCell id="ETDHeams_zEWxF7L-lzj-746" value="数据更新" style="rounded=0;whiteSpace=wrap;html=1;fontSize=15;fontFamily=宋体;strokeColor=#FFFFFF;fontColor=#FE9900;fontStyle=1" parent="1" vertex="1">
          <mxGeometry x="591.5" y="592" width="109" height="35" as="geometry" />
        </mxCell>
        <mxCell id="ETDHeams_zEWxF7L-lzj-747" value="公文管理" style="rounded=0;whiteSpace=wrap;html=1;fillColor=#FFFFFF;fontSize=15;fontFamily=宋体;strokeColor=#FFFFFF;fontStyle=1;fontColor=#85BCBF;" parent="1" vertex="1">
          <mxGeometry x="710.8000000000002" y="250" width="80" height="25" as="geometry" />
        </mxCell>
        <mxCell id="ETDHeams_zEWxF7L-lzj-748" value="公共管理" style="rounded=0;whiteSpace=wrap;html=1;fillColor=#FFFFFF;fontSize=15;fontFamily=宋体;fontStyle=1;strokeColor=#FFFFFF;fontColor=#85BCBF;" parent="1" vertex="1">
          <mxGeometry x="804" y="250" width="80" height="25" as="geometry" />
        </mxCell>
        <mxCell id="ETDHeams_zEWxF7L-lzj-749" value="个人办公" style="rounded=0;whiteSpace=wrap;html=1;fillColor=#FFFFFF;fontSize=15;fontFamily=宋体;strokeColor=#FFFFFF;fontStyle=1;fontColor=#85BCBF;" parent="1" vertex="1">
          <mxGeometry x="710.8000000000002" y="283" width="80" height="25" as="geometry" />
        </mxCell>
        <mxCell id="ETDHeams_zEWxF7L-lzj-750" value="综合行政" style="rounded=0;whiteSpace=wrap;html=1;fillColor=#FFFFFF;fontSize=15;fontFamily=宋体;strokeColor=#FFFFFF;fontStyle=1;fontColor=#85BCBF;" parent="1" vertex="1">
          <mxGeometry x="804" y="283" width="80" height="25" as="geometry" />
        </mxCell>
        <mxCell id="ETDHeams_zEWxF7L-lzj-751" value="信息报送" style="rounded=0;whiteSpace=wrap;html=1;fillColor=#FFFFFF;fontSize=15;fontFamily=宋体;strokeColor=#FFFFFF;fontStyle=1;fontColor=#85BCBF;" parent="1" vertex="1">
          <mxGeometry x="710.8000000000002" y="316" width="80" height="25" as="geometry" />
        </mxCell>
        <mxCell id="ETDHeams_zEWxF7L-lzj-752" value="... ..." style="rounded=0;whiteSpace=wrap;html=1;fontStyle=1;fontSize=15;strokeColor=#FFFFFF;fontFamily=宋体;fontColor=#85BCBF;" parent="1" vertex="1">
          <mxGeometry x="806" y="318" width="76" height="25" as="geometry" />
        </mxCell>
        <mxCell id="ETDHeams_zEWxF7L-lzj-753" value="空间交换服务" style="rounded=0;whiteSpace=wrap;html=1;fillColor=#FFFFFF;fontSize=15;fontFamily=宋体;fontColor=#0099CB;fontStyle=1;strokeColor=#77C3F2;" parent="1" vertex="1">
          <mxGeometry x="255" y="470" width="100" height="25" as="geometry" />
        </mxCell>
        <mxCell id="ETDHeams_zEWxF7L-lzj-754" value="地理编码服务" style="rounded=0;whiteSpace=wrap;html=1;fillColor=#FFFFFF;fontSize=15;fontFamily=宋体;strokeColor=#FFFFFF;fontStyle=1;fontColor=#0099CB;" parent="1" vertex="1">
          <mxGeometry x="377" y="470" width="100" height="25" as="geometry" />
        </mxCell>
        <mxCell id="ETDHeams_zEWxF7L-lzj-755" value="监测信息服务" style="rounded=0;whiteSpace=wrap;html=1;fillColor=#FFFFFF;fontSize=15;fontFamily=宋体;fontColor=#0099CB;fontStyle=1;strokeColor=#FFFFFF;" parent="1" vertex="1">
          <mxGeometry x="499" y="470" width="100" height="25" as="geometry" />
        </mxCell>
        <mxCell id="ETDHeams_zEWxF7L-lzj-756" value="S&lt;br style=&quot;font-size: 20px;&quot;&gt;A&lt;br style=&quot;font-size: 20px;&quot;&gt;A&lt;br style=&quot;font-size: 20px;&quot;&gt;S&lt;br style=&quot;font-size: 20px;&quot;&gt;层" style="rounded=0;whiteSpace=wrap;html=1;strokeColor=none;fontSize=20;fontStyle=1;fontFamily=宋体;fontColor=#FFFFFF;fillColor=#85bcbf;" parent="1" vertex="1">
          <mxGeometry x="182" y="194.5" width="39" height="126" as="geometry" />
        </mxCell>
        <mxCell id="ETDHeams_zEWxF7L-lzj-757" value="D&lt;br style=&quot;font-size: 20px;&quot;&gt;A&lt;br style=&quot;font-size: 20px;&quot;&gt;A&lt;br style=&quot;font-size: 20px;&quot;&gt;S&lt;br style=&quot;font-size: 20px;&quot;&gt;层" style="rounded=0;whiteSpace=wrap;html=1;strokeColor=none;fontSize=20;fontStyle=1;fontFamily=宋体;fontColor=#FFFFFF;fillColor=#FE9900;" parent="1" vertex="1">
          <mxGeometry x="182" y="609.8299999999999" width="39" height="133.33" as="geometry" />
        </mxCell>
        <mxCell id="ETDHeams_zEWxF7L-lzj-758" value="P&lt;br style=&quot;font-size: 20px;&quot;&gt;A&lt;br style=&quot;font-size: 20px;&quot;&gt;A&lt;br style=&quot;font-size: 20px;&quot;&gt;S&lt;br style=&quot;font-size: 20px;&quot;&gt;层" style="rounded=0;whiteSpace=wrap;html=1;strokeColor=none;fontSize=20;fontStyle=1;fontFamily=宋体;fillColor=#0099cb;fontColor=#FFFFFF;" parent="1" vertex="1">
          <mxGeometry x="182" y="394.75" width="39" height="157.5" as="geometry" />
        </mxCell>
        <mxCell id="ETDHeams_zEWxF7L-lzj-759" value="I&lt;br style=&quot;font-size: 20px;&quot;&gt;A&lt;br style=&quot;font-size: 20px;&quot;&gt;A&lt;br style=&quot;font-size: 20px;&quot;&gt;S&lt;br style=&quot;font-size: 20px;&quot;&gt;层" style="rounded=0;whiteSpace=wrap;html=1;strokeColor=none;fontSize=20;fontStyle=1;fontFamily=宋体;fontColor=#FFFFFF;fillColor=#30588c;" parent="1" vertex="1">
          <mxGeometry x="182" y="806.6799999999994" width="39" height="129.64285714285714" as="geometry" />
        </mxCell>
        <mxCell id="ETDHeams_zEWxF7L-lzj-760" value="开发平台" style="rounded=0;whiteSpace=wrap;html=1;fillColor=#FFFFFF;fontSize=15;fontFamily=宋体;fontColor=#0099CB;strokeColor=#FFFFFF;fontStyle=1" parent="1" vertex="1">
          <mxGeometry x="367" y="519.75" width="120" height="35" as="geometry" />
        </mxCell>
        <mxCell id="ETDHeams_zEWxF7L-lzj-761" value="交付平台" style="rounded=0;whiteSpace=wrap;html=1;fillColor=#FFFFFF;fontSize=15;fontFamily=宋体;strokeColor=#FFFFFF;fontColor=#0099CB;fontStyle=1" parent="1" vertex="1">
          <mxGeometry x="499" y="519.75" width="120" height="35" as="geometry" />
        </mxCell>
        <mxCell id="ETDHeams_zEWxF7L-lzj-762" value="数据库服务" style="rounded=0;whiteSpace=wrap;html=1;fillColor=#FFFFFF;fontSize=15;fontFamily=宋体;strokeColor=#FFFFFF;fontColor=#0099CB;fontStyle=1" parent="1" vertex="1">
          <mxGeometry x="235" y="519.75" width="120" height="35" as="geometry" />
        </mxCell>
        <mxCell id="ETDHeams_zEWxF7L-lzj-763" value="统一门户" style="rounded=0;whiteSpace=wrap;html=1;fillColor=#FFFFFF;fontSize=20;fontFamily=宋体;strokeColor=#FFFFFF;fontStyle=1;fontColor=#85BCBF;" parent="1" vertex="1">
          <mxGeometry x="234" y="168" width="662" height="33" as="geometry" />
        </mxCell>
        <mxCell id="ETDHeams_zEWxF7L-lzj-764" value="" style="rounded=0;whiteSpace=wrap;html=1;fontSize=13;fontFamily=宋体;fillColor=#b6dbf2;strokeColor=#B6DBF2;" parent="1" vertex="1">
          <mxGeometry x="240" y="797" width="655" height="64" as="geometry" />
        </mxCell>
        <mxCell id="ETDHeams_zEWxF7L-lzj-765" value="实时流式计算" style="rounded=0;whiteSpace=wrap;html=1;fillColor=#FFFFFF;fontSize=15;fontFamily=宋体;strokeColor=#B6DBF2;fontColor=#30588C;fontStyle=1" parent="1" vertex="1">
          <mxGeometry x="260" y="813" width="100" height="33" as="geometry" />
        </mxCell>
        <mxCell id="ETDHeams_zEWxF7L-lzj-766" value="离线计算" style="rounded=0;whiteSpace=wrap;html=1;fillColor=#FFFFFF;fontSize=15;fontFamily=宋体;strokeColor=#B6DBF2;fontColor=#30588C;fontStyle=1" parent="1" vertex="1">
          <mxGeometry x="384" y="813" width="100" height="33" as="geometry" />
        </mxCell>
        <mxCell id="ETDHeams_zEWxF7L-lzj-767" value="分布式文件存储" style="rounded=0;whiteSpace=wrap;html=1;fillColor=#FFFFFF;fontSize=14;fontFamily=宋体;strokeColor=#B6DBF2;fontColor=#30588C;fontStyle=1" parent="1" vertex="1">
          <mxGeometry x="631.5" y="812.5" width="107" height="33" as="geometry" />
        </mxCell>
        <mxCell id="ETDHeams_zEWxF7L-lzj-768" value="分布式存储" style="rounded=0;whiteSpace=wrap;html=1;fillColor=#FFFFFF;fontSize=15;fontFamily=宋体;fontColor=#30588C;strokeColor=#B6DBF2;fontStyle=1" parent="1" vertex="1">
          <mxGeometry x="509" y="812.5" width="100" height="33" as="geometry" />
        </mxCell>
        <mxCell id="ETDHeams_zEWxF7L-lzj-769" value="统一用户管理" style="rounded=0;whiteSpace=wrap;html=1;fillColor=#FFFFFF;fontSize=15;fontFamily=宋体;fontColor=#0099CB;fontStyle=1;strokeColor=#FFFFFF;" parent="1" vertex="1">
          <mxGeometry x="657" y="427" width="100" height="25" as="geometry" />
        </mxCell>
        <mxCell id="ETDHeams_zEWxF7L-lzj-770" value="认证和授权" style="rounded=0;whiteSpace=wrap;html=1;fillColor=#FFFFFF;fontSize=15;fontFamily=宋体;fontColor=#0099CB;fontStyle=1;strokeColor=#FFFFFF;" parent="1" vertex="1">
          <mxGeometry x="780" y="428" width="100" height="25" as="geometry" />
        </mxCell>
        <mxCell id="ETDHeams_zEWxF7L-lzj-771" value="云监控" style="rounded=0;whiteSpace=wrap;html=1;fillColor=#FFFFFF;fontSize=16;fontFamily=宋体;fontStyle=1;strokeColor=#FFFFFF;fontColor=#FFC61A;" parent="1" vertex="1">
          <mxGeometry x="936.5" y="191" width="60" height="60" as="geometry" />
        </mxCell>
        <mxCell id="ETDHeams_zEWxF7L-lzj-772" value="云运营" style="rounded=0;whiteSpace=wrap;html=1;fillColor=#FFFFFF;fontSize=16;fontFamily=宋体;fontStyle=1;fontColor=#FFC61A;strokeColor=#FFFFFF;" parent="1" vertex="1">
          <mxGeometry x="936.5" y="384" width="60" height="60" as="geometry" />
        </mxCell>
        <mxCell id="ETDHeams_zEWxF7L-lzj-773" value="云运维" style="rounded=0;whiteSpace=wrap;html=1;fillColor=#FFFFFF;fontSize=16;fontFamily=宋体;fontStyle=1;strokeColor=#FFFFFF;fontColor=#FFC61A;" parent="1" vertex="1">
          <mxGeometry x="936.5" y="590" width="60" height="60" as="geometry" />
        </mxCell>
        <mxCell id="ETDHeams_zEWxF7L-lzj-774" value="云安全" style="rounded=0;whiteSpace=wrap;html=1;fillColor=#FFFFFF;fontSize=16;fontFamily=宋体;fontStyle=1;fontColor=#FFC61A;strokeColor=#FFFFFF;" parent="1" vertex="1">
          <mxGeometry x="936.5" y="796.9999999999998" width="60" height="60" as="geometry" />
        </mxCell>
        <mxCell id="ETDHeams_zEWxF7L-lzj-775" value="" style="group;fontFamily=宋体;" parent="1" vertex="1" connectable="0">
          <mxGeometry x="280" y="76.52999999999975" width="50" height="58.470000000000255" as="geometry" />
        </mxCell>
        <mxCell id="ETDHeams_zEWxF7L-lzj-776" value="" style="shape=image;verticalLabelPosition=bottom;labelBackgroundColor=#ffffff;verticalAlign=top;aspect=fixed;imageAspect=0;image=data:image/svg+xml,PHN2ZyB4bWxuczpjYz0iaHR0cDovL2NyZWF0aXZlY29tbW9ucy5vcmcvbnMjIiB4bWxuczpkYz0iaHR0cDovL3B1cmwub3JnL2RjL2VsZW1lbnRzLzEuMS8iIHhtbG5zOmlua3NjYXBlPSJodHRwOi8vd3d3Lmlua3NjYXBlLm9yZy9uYW1lc3BhY2VzL2lua3NjYXBlIiB4bWxuczpyZGY9Imh0dHA6Ly93d3cudzMub3JnLzE5OTkvMDIvMjItcmRmLXN5bnRheC1ucyMiIHhtbG5zOnNvZGlwb2RpPSJodHRwOi8vc29kaXBvZGkuc291cmNlZm9yZ2UubmV0L0RURC9zb2RpcG9kaS0wLmR0ZCIgeG1sbnM6c3ZnPSJodHRwOi8vd3d3LnczLm9yZy8yMDAwL3N2ZyIgeG1sbnM9Imh0dHA6Ly93d3cudzMub3JnLzIwMDAvc3ZnIiB4bWxuczp4bGluaz0iaHR0cDovL3d3dy53My5vcmcvMTk5OS94bGluayIgdmVyc2lvbj0iMS4xIiBpZD0ic3ZnMTI1MTUiIGlua3NjYXBlOnZlcnNpb249IjAuOTIuMyAoMjQwNTU0NiwgMjAxOC0wMy0xMSkiIHNvZGlwb2RpOmRvY25hbWU9ImxhcHRvcF9ibHVlLnN2ZyIgeD0iMHB4IiB5PSIwcHgiIHZpZXdCb3g9IjAgMCA0MS42MyAyNS41IiBzdHlsZT0iZW5hYmxlLWJhY2tncm91bmQ6bmV3IDAgMCA0MS42MyAyNS41OyIgeG1sOnNwYWNlPSJwcmVzZXJ2ZSI+JiN4YTs8c29kaXBvZGk6bmFtZWR2aWV3IGJvcmRlcmNvbG9yPSIjNjY2NjY2IiBib3JkZXJvcGFjaXR5PSIxIiBmaXQtbWFyZ2luLWJvdHRvbT0iMCIgZml0LW1hcmdpbi1sZWZ0PSIwIiBmaXQtbWFyZ2luLXJpZ2h0PSIwIiBmaXQtbWFyZ2luLXRvcD0iMCIgZ3JpZHRvbGVyYW5jZT0iMTAiIGd1aWRldG9sZXJhbmNlPSIxMCIgaWQ9Im5hbWVkdmlldzEyNTE3IiBpbmtzY2FwZTpjdXJyZW50LWxheWVyPSJzdmcxMjUxNSIgaW5rc2NhcGU6Y3g9IjI3Ljc1NDk3OCIgaW5rc2NhcGU6Y3k9IjE2Ljk5OTk4NyIgaW5rc2NhcGU6cGFnZW9wYWNpdHk9IjAiIGlua3NjYXBlOnBhZ2VzaGFkb3c9IjIiIGlua3NjYXBlOndpbmRvdy1oZWlnaHQ9IjEwMTciIGlua3NjYXBlOndpbmRvdy1tYXhpbWl6ZWQ9IjEiIGlua3NjYXBlOndpbmRvdy13aWR0aD0iMTkyMCIgaW5rc2NhcGU6d2luZG93LXg9Ii04IiBpbmtzY2FwZTp3aW5kb3cteT0iLTgiIGlua3NjYXBlOnpvb209IjI0LjA4MzMzMyIgb2JqZWN0dG9sZXJhbmNlPSIxMCIgcGFnZWNvbG9yPSIjZmZmZmZmIiBzaG93Z3JpZD0iZmFsc2UiPiYjeGE7CTwvc29kaXBvZGk6bmFtZWR2aWV3PiYjeGE7PGcgaWQ9ImcxMjUxMyIgdHJhbnNmb3JtPSJ0cmFuc2xhdGUoLTAuNzUsLTAuNzUpIj4mI3hhOwk8dGl0bGUgaWQ9InRpdGxlMTI0ODgiPlBhZ2UtMTwvdGl0bGU+JiN4YTsJPGcgaWQ9Imdyb3VwMzY3My0xIiB0cmFuc2Zvcm09InRyYW5zbGF0ZSgwLjc1LC0wLjc1KSI+JiN4YTsJCTx0aXRsZSBpZD0idGl0bGUxMjQ5MCI+TGFwdG9wIChCbHVlKTwvdGl0bGU+JiN4YTsJCTxnIGlkPSJzaGFwZTM2NzQtMiIgdHJhbnNmb3JtPSJ0cmFuc2xhdGUoMi42MDI1LC0xLjUpIj4mI3hhOwkJCTx0aXRsZSBpZD0idGl0bGUxMjQ5MiI+cGF0aDg4NjE8L3RpdGxlPiYjeGE7CQkJPHBhdGggaWQ9InBhdGgxMjQ5NCIgaW5rc2NhcGU6Y29ubmVjdG9yLWN1cnZhdHVyZT0iMCIgc3R5bGU9ImZpbGw6IzU1NkE4QTsiIGQ9Ik0zNi4wMywyN1YzLjc1YzAtMC40MS0wLjM0LTAuNzUtMC43NS0wLjc1SDAuNzUgICAgIEMwLjM0LDMsMCwzLjM0LDAsMy43NVYyN0gzNi4wM3oiLz4mI3hhOwkJPC9nPiYjeGE7CQk8ZyBpZD0ic2hhcGUzNjc1LTQiIHRyYW5zZm9ybT0idHJhbnNsYXRlKDQuMTMyNSwtMy43NSkiPiYjeGE7CQkJPHRpdGxlIGlkPSJ0aXRsZTEyNDk3Ij5yZWN0ODg2MzwvdGl0bGU+JiN4YTsJCQk8cmVjdCBpZD0icmVjdDEyNDk5IiB4PSIwIiB5PSI2Ljc1IiBzdHlsZT0iZmlsbDojMDA3OEQ3OyIgd2lkdGg9IjMzIiBoZWlnaHQ9IjIwLjI1Ii8+JiN4YTsJCTwvZz4mI3hhOwkJPGcgaWQ9InNoYXBlMzY3Ni02Ij4mI3hhOwkJCTx0aXRsZSBpZD0idGl0bGUxMjUwMiI+cGF0aDg4NjU8L3RpdGxlPiYjeGE7CQkJPHBhdGggaWQ9InBhdGgxMjUwNCIgaW5rc2NhcGU6Y29ubmVjdG9yLWN1cnZhdHVyZT0iMCIgc3R5bGU9ImZpbGw6IzU1NkE4QTsiIGQ9Ik0zOS4zOCwyN0gxLjg4QzAuMzgsMjcsMCwyNC43OSwwLDI0Ljc5ICAgICBsNDEuNjMtMC4wNEM0MS42MywyNC43NSw0MC44OCwyNywzOS4zOCwyN3oiLz4mI3hhOwkJPC9nPiYjeGE7CQk8ZyBpZD0ic2hhcGUzNjc3LTgiIHRyYW5zZm9ybT0idHJhbnNsYXRlKDIyLjUsLTEwLjI5KSI+JiN4YTsJCQk8dGl0bGUgaWQ9InRpdGxlMTI1MDciPnBvbHlnb244ODY3PC90aXRsZT4mI3hhOwkJCTxwYXRoIGlkPSJwYXRoMTI1MDkiIGlua3NjYXBlOmNvbm5lY3Rvci1jdXJ2YXR1cmU9IjAiIHN0eWxlPSJmaWxsOiNGRkZGRkY7ZmlsbC1vcGFjaXR5OjAuMTU7IiBkPSJNMCwxMy4yOUwxNC42MywyN1YxMy4yOUgweiIvPiYjeGE7CQk8L2c+JiN4YTsJPC9nPiYjeGE7PC9nPiYjeGE7PC9zdmc+;rounded=1;strokeColor=#9AC7BF;strokeWidth=3;fillColor=#9AC7BF;fontSize=12;fontColor=#333333;fontFamily=宋体;" parent="ETDHeams_zEWxF7L-lzj-775" vertex="1">
          <mxGeometry width="42" height="26" as="geometry" />
        </mxCell>
        <mxCell id="ETDHeams_zEWxF7L-lzj-777" value="笔记本" style="text;html=1;strokeColor=none;fillColor=none;align=center;verticalAlign=middle;whiteSpace=wrap;rounded=0;fontSize=15;fontFamily=宋体;fontStyle=1" parent="ETDHeams_zEWxF7L-lzj-775" vertex="1">
          <mxGeometry x="-4" y="38.47" width="50" height="20" as="geometry" />
        </mxCell>
        <mxCell id="ETDHeams_zEWxF7L-lzj-778" value="" style="group;fontFamily=宋体;" parent="1" vertex="1" connectable="0">
          <mxGeometry x="437" y="78" width="56" height="59.470000000000255" as="geometry" />
        </mxCell>
        <mxCell id="ETDHeams_zEWxF7L-lzj-779" value="" style="shape=image;verticalLabelPosition=bottom;labelBackgroundColor=#ffffff;verticalAlign=top;aspect=fixed;imageAspect=0;image=data:image/svg+xml,PHN2ZyB4bWxuczpjYz0iaHR0cDovL2NyZWF0aXZlY29tbW9ucy5vcmcvbnMjIiB4bWxuczpkYz0iaHR0cDovL3B1cmwub3JnL2RjL2VsZW1lbnRzLzEuMS8iIHhtbG5zOmlua3NjYXBlPSJodHRwOi8vd3d3Lmlua3NjYXBlLm9yZy9uYW1lc3BhY2VzL2lua3NjYXBlIiB4bWxuczpyZGY9Imh0dHA6Ly93d3cudzMub3JnLzE5OTkvMDIvMjItcmRmLXN5bnRheC1ucyMiIHhtbG5zOnNvZGlwb2RpPSJodHRwOi8vc29kaXBvZGkuc291cmNlZm9yZ2UubmV0L0RURC9zb2RpcG9kaS0wLmR0ZCIgeG1sbnM6c3ZnPSJodHRwOi8vd3d3LnczLm9yZy8yMDAwL3N2ZyIgeG1sbnM9Imh0dHA6Ly93d3cudzMub3JnLzIwMDAvc3ZnIiB4bWxuczp4bGluaz0iaHR0cDovL3d3dy53My5vcmcvMTk5OS94bGluayIgdmVyc2lvbj0iMS4xIiBpZD0ic3ZnMzIxODkiIGlua3NjYXBlOnZlcnNpb249IjAuOTIuMyAoMjQwNTU0NiwgMjAxOC0wMy0xMSkiIHNvZGlwb2RpOmRvY25hbWU9InBjLnN2ZyIgeD0iMHB4IiB5PSIwcHgiIHZpZXdCb3g9IjAgMCAxMjAuMzUgNjAuNDYiIHN0eWxlPSJlbmFibGUtYmFja2dyb3VuZDpuZXcgMCAwIDEyMC4zNSA2MC40NjsiIHhtbDpzcGFjZT0icHJlc2VydmUiPiYjeGE7PHNvZGlwb2RpOm5hbWVkdmlldyBib3JkZXJjb2xvcj0iIzY2NjY2NiIgYm9yZGVyb3BhY2l0eT0iMSIgZml0LW1hcmdpbi1ib3R0b209IjAiIGZpdC1tYXJnaW4tbGVmdD0iMCIgZml0LW1hcmdpbi1yaWdodD0iMCIgZml0LW1hcmdpbi10b3A9IjAiIGdyaWR0b2xlcmFuY2U9IjEwIiBndWlkZXRvbGVyYW5jZT0iMTAiIGlkPSJuYW1lZHZpZXczMjE5MSIgaW5rc2NhcGU6Y3VycmVudC1sYXllcj0ic3ZnMzIxODkiIGlua3NjYXBlOmN4PSI4My4xODExOTIiIGlua3NjYXBlOmN5PSIzMi4wOTQ1NzQiIGlua3NjYXBlOnBhZ2VvcGFjaXR5PSIwIiBpbmtzY2FwZTpwYWdlc2hhZG93PSIyIiBpbmtzY2FwZTp3aW5kb3ctaGVpZ2h0PSIxMDE3IiBpbmtzY2FwZTp3aW5kb3ctbWF4aW1pemVkPSIxIiBpbmtzY2FwZTp3aW5kb3ctd2lkdGg9IjE5MjAiIGlua3NjYXBlOndpbmRvdy14PSItOCIgaW5rc2NhcGU6d2luZG93LXk9Ii04IiBpbmtzY2FwZTp6b29tPSI3LjUxMjAxOTUiIG9iamVjdHRvbGVyYW5jZT0iMTAiIHBhZ2Vjb2xvcj0iI2ZmZmZmZiIgc2hvd2dyaWQ9ImZhbHNlIj4mI3hhOwk8L3NvZGlwb2RpOm5hbWVkdmlldz4mI3hhOzxnIGlkPSJnMzIxODciIHRyYW5zZm9ybT0idHJhbnNsYXRlKC0wLjc0NTM4NywtMC43NTAwNjE3MikiPiYjeGE7CTx0aXRsZSBpZD0idGl0bGUzMTk1MiI+UGFnZS0xPC90aXRsZT4mI3hhOwk8ZyBpZD0iZ3JvdXAzNTUwLTEiIHRyYW5zZm9ybT0idHJhbnNsYXRlKDAuNzQ1Mzg3LC0xLjEyNSkiPiYjeGE7CQk8dGl0bGUgaWQ9InRpdGxlMzE5NTQiPlBDPC90aXRsZT4mI3hhOwkJPGcgaWQ9Imdyb3VwMzU1MS0yIiB0cmFuc2Zvcm09InRyYW5zbGF0ZSg3OS4wMjY0LC04LjE1OTExKSI+JiN4YTsJCQk8dGl0bGUgaWQ9InRpdGxlMzE5NTYiPlNoZWV0LjM1NTE8L3RpdGxlPiYjeGE7CQkJPGcgaWQ9InNoYXBlMzU1Mi0zIiB0cmFuc2Zvcm09InRyYW5zbGF0ZSgwLC0xOC40NDMyKSI+JiN4YTsJCQkJPHRpdGxlIGlkPSJ0aXRsZTMxOTU4Ij5TaGVldC4zNTUyPC90aXRsZT4mI3hhOwkJCQk8cGF0aCBpZD0icGF0aDMxOTYwIiBpbmtzY2FwZTpjb25uZWN0b3ItY3VydmF0dXJlPSIwIiBzdHlsZT0iZmlsbDpub25lOyIgZD0iTTI0LjkzLDU0LjkxYzAtMy40LTIuNzctNi4xNy02LjE3LTYuMTdoLTAuMTMgICAgICBjLTMuNCwwLTYuMTcsMi43Ny02LjE3LDYuMTd2MC4xM2MwLDMuNDEtMi43Niw2LjE3LTYuMTcsNi4xN0g2LjE3QzIuNzYsNjEuMjEsMCw1OC40NSwwLDU1LjA0TDI0LjkzLDU0LjkxeiIvPiYjeGE7CQkJCSYjeGE7CQkJCQk8cGF0aCBpZD0icGF0aDMxOTYyIiBpbmtzY2FwZTpjb25uZWN0b3ItY3VydmF0dXJlPSIwIiBzdHlsZT0iZmlsbDpub25lO3N0cm9rZTojODBEOEE5O3N0cm9rZS13aWR0aDoyLjI1O3N0cm9rZS1saW5lY2FwOnJvdW5kO3N0cm9rZS1saW5lam9pbjpyb3VuZDtzdHJva2UtbWl0ZXJsaW1pdDozOyIgZD0iICAgICAgTTI0LjkzLDU0LjkxYzAtMy40LTIuNzctNi4xNy02LjE3LTYuMTdoLTAuMTNjLTMuNCwwLTYuMTcsMi43Ny02LjE3LDYuMTd2MC4xM2MwLDMuNDEtMi43Niw2LjE3LTYuMTcsNi4xN0g2LjE3ICAgICAgQzIuNzYsNjEuMjEsMCw1OC40NSwwLDU1LjA0Ii8+JiN4YTsJCQk8L2c+JiN4YTsJCQk8ZyBpZD0iZ3JvdXAzNTUzLTYiIHRyYW5zZm9ybT0idHJhbnNsYXRlKDI0LjkyNjgpIj4mI3hhOwkJCQk8dGl0bGUgaWQ9InRpdGxlMzE5NjUiPlNoZWV0LjM1NTM8L3RpdGxlPiYjeGE7CQkJCTxnIGlkPSJzaGFwZTM1NTQtNyI+JiN4YTsJCQkJCTx0aXRsZSBpZD0idGl0bGUzMTk2NyI+U2hlZXQuMzU1NDwvdGl0bGU+JiN4YTsJCQkJCSYjeGE7CQkJCQkJPHJlY3QgaWQ9InJlY3QzMTk2OSIgeD0iMCIgeT0iMTEuNTMiIHN0eWxlPSJmaWxsOiNDQ0NDQ0M7c3Ryb2tlOiMzRjU3NjU7c3Ryb2tlLXdpZHRoOjM7c3Ryb2tlLWxpbmVjYXA6cm91bmQ7c3Ryb2tlLWxpbmVqb2luOnJvdW5kO3N0cm9rZS1taXRlcmxpbWl0OjM7IiB3aWR0aD0iMTQuOSIgaGVpZ2h0PSI0OS42NyIvPiYjeGE7CQkJCTwvZz4mI3hhOwkJCQk8ZyBpZD0ic2hhcGUzNTU1LTkiPiYjeGE7CQkJCQk8dGl0bGUgaWQ9InRpdGxlMzE5NzIiPlNoZWV0LjM1NTU8L3RpdGxlPiYjeGE7CQkJCQkmI3hhOwkJCQkJCTxyZWN0IGlkPSJyZWN0MzE5NzQiIHg9IjAiIHk9IjU2LjI0IiBzdHlsZT0iZmlsbDojRkZGRkZGO3N0cm9rZTojM0Y1NzY1O3N0cm9rZS13aWR0aDoyLjI1O3N0cm9rZS1taXRlcmxpbWl0OjM7IiB3aWR0aD0iNC45NyIgaGVpZ2h0PSI0Ljk3Ii8+JiN4YTsJCQkJPC9nPiYjeGE7CQkJCTxnIGlkPSJzaGFwZTM1NTYtMTEiIHRyYW5zZm9ybT0idHJhbnNsYXRlKDQuOTY3NTcpIj4mI3hhOwkJCQkJPHRpdGxlIGlkPSJ0aXRsZTMxOTc3Ij5TaGVldC4zNTU2PC90aXRsZT4mI3hhOwkJCQkJJiN4YTsJCQkJCQk8cmVjdCBpZD0icmVjdDMxOTc5IiB4PSIwIiB5PSI1Ni4yNCIgc3R5bGU9ImZpbGw6I0ZGRkZGRjtzdHJva2U6IzNGNTc2NTtzdHJva2Utd2lkdGg6Mi4yNTtzdHJva2UtbWl0ZXJsaW1pdDozOyIgd2lkdGg9IjQuOTciIGhlaWdodD0iNC45NyIvPiYjeGE7CQkJCTwvZz4mI3hhOwkJCQk8ZyBpZD0ic2hhcGUzNTU3LTEzIiB0cmFuc2Zvcm09InRyYW5zbGF0ZSg5LjkzNDU2KSI+JiN4YTsJCQkJCTx0aXRsZSBpZD0idGl0bGUzMTk4MiI+U2hlZXQuMzU1NzwvdGl0bGU+JiN4YTsJCQkJCSYjeGE7CQkJCQkJPHJlY3QgaWQ9InJlY3QzMTk4NCIgeD0iMCIgeT0iNTYuMjQiIHN0eWxlPSJmaWxsOiNGRkZGRkY7c3Ryb2tlOiMzRjU3NjU7c3Ryb2tlLXdpZHRoOjIuMjU7c3Ryb2tlLW1pdGVybGltaXQ6MzsiIHdpZHRoPSI0Ljk3IiBoZWlnaHQ9IjQuOTciLz4mI3hhOwkJCQk8L2c+JiN4YTsJCQkJPGcgaWQ9InNoYXBlMzU1OC0xNSIgdHJhbnNmb3JtPSJ0cmFuc2xhdGUoOS45MzQ1NiwtNC45Njc1NykiPiYjeGE7CQkJCQk8dGl0bGUgaWQ9InRpdGxlMzE5ODciPlNoZWV0LjM1NTg8L3RpdGxlPiYjeGE7CQkJCQkmI3hhOwkJCQkJCTxyZWN0IGlkPSJyZWN0MzE5ODkiIHg9IjAiIHk9IjU2LjI0IiBzdHlsZT0iZmlsbDojRkZGRkZGO3N0cm9rZTojM0Y1NzY1O3N0cm9rZS13aWR0aDoyLjI1O3N0cm9rZS1taXRlcmxpbWl0OjM7IiB3aWR0aD0iNC45NyIgaGVpZ2h0PSI0Ljk3Ii8+JiN4YTsJCQkJPC9nPiYjeGE7CQkJCTxnIGlkPSJzaGFwZTM1NTktMTciIHRyYW5zZm9ybT0idHJhbnNsYXRlKDAsLTQuOTY3NTcpIj4mI3hhOwkJCQkJPHRpdGxlIGlkPSJ0aXRsZTMxOTkyIj5TaGVldC4zNTU5PC90aXRsZT4mI3hhOwkJCQkJJiN4YTsJCQkJCQk8cmVjdCBpZD0icmVjdDMxOTk0IiB4PSIwIiB5PSI1Ni4yNCIgc3R5bGU9ImZpbGw6I0ZGRkZGRjtzdHJva2U6IzNGNTc2NTtzdHJva2Utd2lkdGg6Mi4yNTtzdHJva2UtbWl0ZXJsaW1pdDozOyIgd2lkdGg9IjQuOTciIGhlaWdodD0iNC45NyIvPiYjeGE7CQkJCTwvZz4mI3hhOwkJCQk8ZyBpZD0ic2hhcGUzNTYwLTE5IiB0cmFuc2Zvcm09InRyYW5zbGF0ZSg0Ljk2NzU3LC00Ljk2NzU3KSI+JiN4YTsJCQkJCTx0aXRsZSBpZD0idGl0bGUzMTk5NyI+U2hlZXQuMzU2MDwvdGl0bGU+JiN4YTsJCQkJCSYjeGE7CQkJCQkJPHJlY3QgaWQ9InJlY3QzMTk5OSIgeD0iMCIgeT0iNTYuMjQiIHN0eWxlPSJmaWxsOiNGRkZGRkY7c3Ryb2tlOiMzRjU3NjU7c3Ryb2tlLXdpZHRoOjIuMjU7c3Ryb2tlLW1pdGVybGltaXQ6MzsiIHdpZHRoPSI0Ljk3IiBoZWlnaHQ9IjQuOTciLz4mI3hhOwkJCQk8L2c+JiN4YTsJCQkJPGcgaWQ9InNoYXBlMzU2MS0yMSIgdHJhbnNmb3JtPSJ0cmFuc2xhdGUoMCwtOS45MzQ1NikiPiYjeGE7CQkJCQk8dGl0bGUgaWQ9InRpdGxlMzIwMDIiPlNoZWV0LjM1NjE8L3RpdGxlPiYjeGE7CQkJCQkmI3hhOwkJCQkJCTxyZWN0IGlkPSJyZWN0MzIwMDQiIHg9IjAiIHk9IjU2LjI0IiBzdHlsZT0iZmlsbDojRkZGRkZGO3N0cm9rZTojM0Y1NzY1O3N0cm9rZS13aWR0aDoyLjI1O3N0cm9rZS1taXRlcmxpbWl0OjM7IiB3aWR0aD0iNC45NyIgaGVpZ2h0PSI0Ljk3Ii8+JiN4YTsJCQkJPC9nPiYjeGE7CQkJCTxnIGlkPSJzaGFwZTM1NjItMjMiIHRyYW5zZm9ybT0idHJhbnNsYXRlKDQuOTY3NTcsLTkuOTM0NTYpIj4mI3hhOwkJCQkJPHRpdGxlIGlkPSJ0aXRsZTMyMDA3Ij5TaGVldC4zNTYyPC90aXRsZT4mI3hhOwkJCQkJJiN4YTsJCQkJCQk8cmVjdCBpZD0icmVjdDMyMDA5IiB4PSIwIiB5PSI1Ni4yNCIgc3R5bGU9ImZpbGw6I0ZGRkZGRjtzdHJva2U6IzNGNTc2NTtzdHJva2Utd2lkdGg6Mi4yNTtzdHJva2UtbWl0ZXJsaW1pdDozOyIgd2lkdGg9IjQuOTciIGhlaWdodD0iNC45NyIvPiYjeGE7CQkJCTwvZz4mI3hhOwkJCQk8ZyBpZD0ic2hhcGUzNTYzLTI1IiB0cmFuc2Zvcm09InRyYW5zbGF0ZSgwLC0xNC45MDIxKSI+JiN4YTsJCQkJCTx0aXRsZSBpZD0idGl0bGUzMjAxMiI+U2hlZXQuMzU2MzwvdGl0bGU+JiN4YTsJCQkJCSYjeGE7CQkJCQkJPHJlY3QgaWQ9InJlY3QzMjAxNCIgeD0iMCIgeT0iNTYuMjQiIHN0eWxlPSJmaWxsOiNGRkZGRkY7c3Ryb2tlOiMzRjU3NjU7c3Ryb2tlLXdpZHRoOjIuMjU7c3Ryb2tlLW1pdGVybGltaXQ6MzsiIHdpZHRoPSI0Ljk3IiBoZWlnaHQ9IjQuOTciLz4mI3hhOwkJCQk8L2c+JiN4YTsJCQkJPGcgaWQ9InNoYXBlMzU2NC0yNyIgdHJhbnNmb3JtPSJ0cmFuc2xhdGUoNC45Njc1NywtMTQuOTAyMSkiPiYjeGE7CQkJCQk8dGl0bGUgaWQ9InRpdGxlMzIwMTciPlNoZWV0LjM1NjQ8L3RpdGxlPiYjeGE7CQkJCQkmI3hhOwkJCQkJCTxyZWN0IGlkPSJyZWN0MzIwMTkiIHg9IjAiIHk9IjU2LjI0IiBzdHlsZT0iZmlsbDojRkZGRkZGO3N0cm9rZTojM0Y1NzY1O3N0cm9rZS13aWR0aDoyLjI1O3N0cm9rZS1taXRlcmxpbWl0OjM7IiB3aWR0aD0iNC45NyIgaGVpZ2h0PSI0Ljk3Ii8+JiN4YTsJCQkJPC9nPiYjeGE7CQkJCTxnIGlkPSJzaGFwZTM1NjUtMjkiIHRyYW5zZm9ybT0idHJhbnNsYXRlKDAsLTE5Ljg2OTcpIj4mI3hhOwkJCQkJPHRpdGxlIGlkPSJ0aXRsZTMyMDIyIj5TaGVldC4zNTY1PC90aXRsZT4mI3hhOwkJCQkJJiN4YTsJCQkJCQk8cmVjdCBpZD0icmVjdDMyMDI0IiB4PSIwIiB5PSI1Ni4yNCIgc3R5bGU9ImZpbGw6I0ZGRkZGRjtzdHJva2U6IzNGNTc2NTtzdHJva2Utd2lkdGg6Mi4yNTtzdHJva2UtbWl0ZXJsaW1pdDozOyIgd2lkdGg9IjQuOTciIGhlaWdodD0iNC45NyIvPiYjeGE7CQkJCTwvZz4mI3hhOwkJCQk8ZyBpZD0ic2hhcGUzNTY2LTMxIiB0cmFuc2Zvcm09InRyYW5zbGF0ZSg0Ljk2NzU3LC0xOS44Njk3KSI+JiN4YTsJCQkJCTx0aXRsZSBpZD0idGl0bGUzMjAyNyI+U2hlZXQuMzU2NjwvdGl0bGU+JiN4YTsJCQkJCSYjeGE7CQkJCQkJPHJlY3QgaWQ9InJlY3QzMjAyOSIgeD0iMCIgeT0iNTYuMjQiIHN0eWxlPSJmaWxsOiNGRkZGRkY7c3Ryb2tlOiMzRjU3NjU7c3Ryb2tlLXdpZHRoOjIuMjU7c3Ryb2tlLW1pdGVybGltaXQ6MzsiIHdpZHRoPSI0Ljk3IiBoZWlnaHQ9IjQuOTciLz4mI3hhOwkJCQk8L2c+JiN4YTsJCQkJPGcgaWQ9InNoYXBlMzU2Ny0zMyIgdHJhbnNmb3JtPSJ0cmFuc2xhdGUoMCwtMjQuODM2NykiPiYjeGE7CQkJCQk8dGl0bGUgaWQ9InRpdGxlMzIwMzIiPlNoZWV0LjM1Njc8L3RpdGxlPiYjeGE7CQkJCQkmI3hhOwkJCQkJCTxyZWN0IGlkPSJyZWN0MzIwMzQiIHg9IjAiIHk9IjU2LjI0IiBzdHlsZT0iZmlsbDojRkZGRkZGO3N0cm9rZTojM0Y1NzY1O3N0cm9rZS13aWR0aDoyLjI1O3N0cm9rZS1taXRlcmxpbWl0OjM7IiB3aWR0aD0iNC45NyIgaGVpZ2h0PSI0Ljk3Ii8+JiN4YTsJCQkJPC9nPiYjeGE7CQkJCTxnIGlkPSJzaGFwZTM1NjgtMzUiIHRyYW5zZm9ybT0idHJhbnNsYXRlKDQuOTY3NTcsLTI0LjgzNjcpIj4mI3hhOwkJCQkJPHRpdGxlIGlkPSJ0aXRsZTMyMDM3Ij5TaGVldC4zNTY4PC90aXRsZT4mI3hhOwkJCQkJJiN4YTsJCQkJCQk8cmVjdCBpZD0icmVjdDMyMDM5IiB4PSIwIiB5PSI1Ni4yNCIgc3R5bGU9ImZpbGw6I0ZGRkZGRjtzdHJva2U6IzNGNTc2NTtzdHJva2Utd2lkdGg6Mi4yNTtzdHJva2UtbWl0ZXJsaW1pdDozOyIgd2lkdGg9IjQuOTciIGhlaWdodD0iNC45NyIvPiYjeGE7CQkJCTwvZz4mI3hhOwkJCQk8ZyBpZD0ic2hhcGUzNTY5LTM3IiB0cmFuc2Zvcm09InRyYW5zbGF0ZSgwLC0yOS44MDQzKSI+JiN4YTsJCQkJCTx0aXRsZSBpZD0idGl0bGUzMjA0MiI+U2hlZXQuMzU2OTwvdGl0bGU+JiN4YTsJCQkJCSYjeGE7CQkJCQkJPHJlY3QgaWQ9InJlY3QzMjA0NCIgeD0iMCIgeT0iNTYuMjQiIHN0eWxlPSJmaWxsOiNGRkZGRkY7c3Ryb2tlOiMzRjU3NjU7c3Ryb2tlLXdpZHRoOjIuMjU7c3Ryb2tlLW1pdGVybGltaXQ6MzsiIHdpZHRoPSI0Ljk3IiBoZWlnaHQ9IjQuOTciLz4mI3hhOwkJCQk8L2c+JiN4YTsJCQkJPGcgaWQ9InNoYXBlMzU3MC0zOSIgdHJhbnNmb3JtPSJ0cmFuc2xhdGUoNC45Njc1NywtMjkuODA0MykiPiYjeGE7CQkJCQk8dGl0bGUgaWQ9InRpdGxlMzIwNDciPlNoZWV0LjM1NzA8L3RpdGxlPiYjeGE7CQkJCQkmI3hhOwkJCQkJCTxyZWN0IGlkPSJyZWN0MzIwNDkiIHg9IjAiIHk9IjU2LjI0IiBzdHlsZT0iZmlsbDojRkZGRkZGO3N0cm9rZTojM0Y1NzY1O3N0cm9rZS13aWR0aDoyLjI1O3N0cm9rZS1taXRlcmxpbWl0OjM7IiB3aWR0aD0iNC45NyIgaGVpZ2h0PSI0Ljk3Ii8+JiN4YTsJCQkJPC9nPiYjeGE7CQkJCTxnIGlkPSJzaGFwZTM1NzEtNDEiIHRyYW5zZm9ybT0idHJhbnNsYXRlKDAsLTM0Ljc3MTgpIj4mI3hhOwkJCQkJPHRpdGxlIGlkPSJ0aXRsZTMyMDUyIj5TaGVldC4zNTcxPC90aXRsZT4mI3hhOwkJCQkJJiN4YTsJCQkJCQk8cmVjdCBpZD0icmVjdDMyMDU0IiB4PSIwIiB5PSI1Ni4yNCIgc3R5bGU9ImZpbGw6I0ZGRkZGRjtzdHJva2U6IzNGNTc2NTtzdHJva2Utd2lkdGg6Mi4yNTtzdHJva2UtbWl0ZXJsaW1pdDozOyIgd2lkdGg9IjQuOTciIGhlaWdodD0iNC45NyIvPiYjeGE7CQkJCTwvZz4mI3hhOwkJCQk8ZyBpZD0ic2hhcGUzNTcyLTQzIiB0cmFuc2Zvcm09InRyYW5zbGF0ZSg0Ljk2NzU3LC0zNC43NzE4KSI+JiN4YTsJCQkJCTx0aXRsZSBpZD0idGl0bGUzMjA1NyI+U2hlZXQuMzU3MjwvdGl0bGU+JiN4YTsJCQkJCSYjeGE7CQkJCQkJPHJlY3QgaWQ9InJlY3QzMjA1OSIgeD0iMCIgeT0iNTYuMjQiIHN0eWxlPSJmaWxsOiNGRkZGRkY7c3Ryb2tlOiMzRjU3NjU7c3Ryb2tlLXdpZHRoOjIuMjU7c3Ryb2tlLW1pdGVybGltaXQ6MzsiIHdpZHRoPSI0Ljk3IiBoZWlnaHQ9IjQuOTciLz4mI3hhOwkJCQk8L2c+JiN4YTsJCQkJPGcgaWQ9InNoYXBlMzU3My00NSIgdHJhbnNmb3JtPSJ0cmFuc2xhdGUoMCwtMzkuNzM5NCkiPiYjeGE7CQkJCQk8dGl0bGUgaWQ9InRpdGxlMzIwNjIiPlNoZWV0LjM1NzM8L3RpdGxlPiYjeGE7CQkJCQkmI3hhOwkJCQkJCTxyZWN0IGlkPSJyZWN0MzIwNjQiIHg9IjAiIHk9IjUxLjI3IiBzdHlsZT0iZmlsbDojRkZGRkZGO3N0cm9rZTojM0Y1NzY1O3N0cm9rZS13aWR0aDoyLjI1O3N0cm9rZS1taXRlcmxpbWl0OjM7IiB3aWR0aD0iNC45NyIgaGVpZ2h0PSI5LjkzIi8+JiN4YTsJCQkJPC9nPiYjeGE7CQkJCTxnIGlkPSJzaGFwZTM1NzQtNDciIHRyYW5zZm9ybT0idHJhbnNsYXRlKDQuOTY3NTcsLTM5LjczODgpIj4mI3hhOwkJCQkJPHRpdGxlIGlkPSJ0aXRsZTMyMDY3Ij5TaGVldC4zNTc0PC90aXRsZT4mI3hhOwkJCQkJJiN4YTsJCQkJCQk8cmVjdCBpZD0icmVjdDMyMDY5IiB4PSIwIiB5PSI1Ni4yNCIgc3R5bGU9ImZpbGw6I0ZGRkZGRjtzdHJva2U6IzNGNTc2NTtzdHJva2Utd2lkdGg6Mi4yNTtzdHJva2UtbWl0ZXJsaW1pdDozOyIgd2lkdGg9IjQuOTciIGhlaWdodD0iNC45NyIvPiYjeGE7CQkJCTwvZz4mI3hhOwkJCQk8ZyBpZD0ic2hhcGUzNTc1LTQ5IiB0cmFuc2Zvcm09InRyYW5zbGF0ZSgwLC00NC43MDY0KSI+JiN4YTsJCQkJCTx0aXRsZSBpZD0idGl0bGUzMjA3MiI+U2hlZXQuMzU3NTwvdGl0bGU+JiN4YTsJCQkJCSYjeGE7CQkJCQkJPHJlY3QgaWQ9InJlY3QzMjA3NCIgeD0iMCIgeT0iNTYuMjQiIHN0eWxlPSJmaWxsOiNGRkZGRkY7c3Ryb2tlOiMzRjU3NjU7c3Ryb2tlLXdpZHRoOjIuMjU7c3Ryb2tlLW1pdGVybGltaXQ6MzsiIHdpZHRoPSI0Ljk3IiBoZWlnaHQ9IjQuOTciLz4mI3hhOwkJCQk8L2c+JiN4YTsJCQkJPGcgaWQ9InNoYXBlMzU3Ni01MSIgdHJhbnNmb3JtPSJ0cmFuc2xhdGUoNC45Njc1NywtNDQuNzA2NCkiPiYjeGE7CQkJCQk8dGl0bGUgaWQ9InRpdGxlMzIwNzciPlNoZWV0LjM1NzY8L3RpdGxlPiYjeGE7CQkJCQkmI3hhOwkJCQkJCTxyZWN0IGlkPSJyZWN0MzIwNzkiIHg9IjAiIHk9IjU2LjI0IiBzdHlsZT0iZmlsbDojRkZGRkZGO3N0cm9rZTojM0Y1NzY1O3N0cm9rZS13aWR0aDoyLjI1O3N0cm9rZS1taXRlcmxpbWl0OjM7IiB3aWR0aD0iNC45NyIgaGVpZ2h0PSI0Ljk3Ii8+JiN4YTsJCQkJPC9nPiYjeGE7CQkJCTxnIGlkPSJzaGFwZTM1NzctNTMiIHRyYW5zZm9ybT0idHJhbnNsYXRlKDkuOTM0NTYsLTQ0LjcwNjQpIj4mI3hhOwkJCQkJPHRpdGxlIGlkPSJ0aXRsZTMyMDgyIj5TaGVldC4zNTc3PC90aXRsZT4mI3hhOwkJCQkJJiN4YTsJCQkJCQk8cmVjdCBpZD0icmVjdDMyMDg0IiB4PSIwIiB5PSI1Ni4yNCIgc3R5bGU9ImZpbGw6I0ZGRkZGRjtzdHJva2U6IzNGNTc2NTtzdHJva2Utd2lkdGg6Mi4yNTtzdHJva2UtbWl0ZXJsaW1pdDozOyIgd2lkdGg9IjQuOTciIGhlaWdodD0iNC45NyIvPiYjeGE7CQkJCTwvZz4mI3hhOwkJCQk8ZyBpZD0ic2hhcGUzNTc4LTU1IiB0cmFuc2Zvcm09InRyYW5zbGF0ZSg5LjkzNDU2LC0zOS43Mzk0KSI+JiN4YTsJCQkJCTx0aXRsZSBpZD0idGl0bGUzMjA4NyI+U2hlZXQuMzU3ODwvdGl0bGU+JiN4YTsJCQkJCSYjeGE7CQkJCQkJPHJlY3QgaWQ9InJlY3QzMjA4OSIgeD0iMCIgeT0iNTYuMjQiIHN0eWxlPSJmaWxsOiNGRkZGRkY7c3Ryb2tlOiMzRjU3NjU7c3Ryb2tlLXdpZHRoOjIuMjU7c3Ryb2tlLW1pdGVybGltaXQ6MzsiIHdpZHRoPSI0Ljk3IiBoZWlnaHQ9IjQuOTciLz4mI3hhOwkJCQk8L2c+JiN4YTsJCQkJPGcgaWQ9InNoYXBlMzU3OS01NyIgdHJhbnNmb3JtPSJ0cmFuc2xhdGUoOS45MzQ1NiwtOS45MzUxNCkiPiYjeGE7CQkJCQk8dGl0bGUgaWQ9InRpdGxlMzIwOTIiPlNoZWV0LjM1Nzk8L3RpdGxlPiYjeGE7CQkJCQkmI3hhOwkJCQkJCTxyZWN0IGlkPSJyZWN0MzIwOTQiIHg9IjAiIHk9IjMxLjQiIHN0eWxlPSJmaWxsOiNGRkZGRkY7c3Ryb2tlOiMzRjU3NjU7c3Ryb2tlLXdpZHRoOjIuMjU7c3Ryb2tlLW1pdGVybGltaXQ6MzsiIHdpZHRoPSI0Ljk3IiBoZWlnaHQ9IjI5LjgiLz4mI3hhOwkJCQk8L2c+JiN4YTsJCQk8L2c+JiN4YTsJCTwvZz4mI3hhOwkJPGcgaWQ9Imdyb3VwMzU4MC01OSI+JiN4YTsJCQk8dGl0bGUgaWQ9InRpdGxlMzIwOTkiPlNoZWV0LjM1ODA8L3RpdGxlPiYjeGE7CQkJPGcgaWQ9Imdyb3VwMzU4MS02MCIgdHJhbnNmb3JtPSJ0cmFuc2xhdGUoMjIuNTA3OCkiPiYjeGE7CQkJCTx0aXRsZSBpZD0idGl0bGUzMjEwMSI+U2hlZXQuMzU4MTwvdGl0bGU+JiN4YTsJCQkJPGcgaWQ9InNoYXBlMzU4Mi02MSIgdHJhbnNmb3JtPSJ0cmFuc2xhdGUoOC4wNDEyNSwtNS43NDExOSkiPiYjeGE7CQkJCQk8dGl0bGUgaWQ9InRpdGxlMzIxMDMiPlNoZWV0LjM1ODI8L3RpdGxlPiYjeGE7CQkJCQkmI3hhOwkJCQkJCTxyZWN0IGlkPSJyZWN0MzIxMDUiIHg9IjAiIHk9IjQ5LjczIiBzdHlsZT0iZmlsbDojM0Y1NzY1O3N0cm9rZTojM0Y1NzY1O3N0cm9rZS13aWR0aDowLjc1O3N0cm9rZS1taXRlcmxpbWl0OjM7IiB3aWR0aD0iMTkuOCIgaGVpZ2h0PSIxMS40OCIvPiYjeGE7CQkJCTwvZz4mI3hhOwkJCQk8ZyBpZD0ic2hhcGUzNTgzLTYzIj4mI3hhOwkJCQkJPHRpdGxlIGlkPSJ0aXRsZTMyMTA4Ij5TaGVldC4zNTgzPC90aXRsZT4mI3hhOwkJCQkJJiN4YTsJCQkJCQk8cGF0aCBpZD0icGF0aDMyMTEwIiBpbmtzY2FwZTpjb25uZWN0b3ItY3VydmF0dXJlPSIwIiBzdHlsZT0iZmlsbDojM0Y1NzY1O3N0cm9rZTojM0Y1NzY1O3N0cm9rZS13aWR0aDoyLjI1O3N0cm9rZS1saW5lY2FwOnJvdW5kO3N0cm9rZS1saW5lam9pbjpyb3VuZDtzdHJva2UtbWl0ZXJsaW1pdDozOyIgZD0iICAgICAgIE0yNS42Nyw1My4xMkgxMC4yMUwwLDYxLjIxaDM1Ljg4TDI1LjY3LDUzLjEyeiIvPiYjeGE7CQkJCTwvZz4mI3hhOwkJCTwvZz4mI3hhOwkJCTxnIGlkPSJncm91cDM1ODQtNjUiIHRyYW5zZm9ybT0idHJhbnNsYXRlKDAsLTExLjQ3MzcpIj4mI3hhOwkJCQk8dGl0bGUgaWQ9InRpdGxlMzIxMTQiPlNoZWV0LjM1ODQ8L3RpdGxlPiYjeGE7CQkJCTxnIGlkPSJzaGFwZTM1ODUtNjYiPiYjeGE7CQkJCQk8dGl0bGUgaWQ9InRpdGxlMzIxMTYiPlNoZWV0LjM1ODU8L3RpdGxlPiYjeGE7CQkJCQk8cGF0aCBpZD0icGF0aDMyMTE4IiBpbmtzY2FwZTpjb25uZWN0b3ItY3VydmF0dXJlPSIwIiBzdHlsZT0iZmlsbDojM0Y1NzY1OyIgZD0iTTMuOTcsNjEuMDhDMS43OCw2MS4wOCwwLDU5LjQ1LDAsNTcuNDUgICAgICAgbDAuMDktMzguNTljMC0yLDEuNzktMy42MiwzLjk4LTMuNjJsNzIuODUsMC4xMmMyLjIsMC4wMSwzLjk4LDEuNjMsMy45NywzLjY0bC0wLjA4LDM4LjU5Yy0wLjAxLDItMS43OSwzLjYyLTMuOTksMy42MSAgICAgICBMMy45Nyw2MS4wOHoiLz4mI3hhOwkJCQk8L2c+JiN4YTsJCQkJPGcgaWQ9InNoYXBlMzU4Ni02OCIgdHJhbnNmb3JtPSJ0cmFuc2xhdGUoNC4yMDk1NSwtMy43MTA5NSkiPiYjeGE7CQkJCQk8dGl0bGUgaWQ9InRpdGxlMzIxMjEiPlNoZWV0LjM1ODY8L3RpdGxlPiYjeGE7CQkJCQk8cmVjdCBpZD0icmVjdDMyMTIzIiB4PSIwIiB5PSIyMi42NiIgc3R5bGU9ImZpbGw6I0ZGRkZGRjsiIHdpZHRoPSI3Mi44OSIgaGVpZ2h0PSIzOC41NSIvPiYjeGE7CQkJCTwvZz4mI3hhOwkJCTwvZz4mI3hhOwkJCTxnIGlkPSJncm91cDM1ODctNzAiIHRyYW5zZm9ybT0idHJhbnNsYXRlKDExLjMzNzksLTIxLjU1NjgpIj4mI3hhOwkJCQk8dGl0bGUgaWQ9InRpdGxlMzIxMjciPlNoZWV0LjM1ODc8L3RpdGxlPiYjeGE7CQkJCTxnIGlkPSJzaGFwZTM1ODgtNzEiIHRyYW5zZm9ybT0idHJhbnNsYXRlKDAsLTI1LjUyMjUpIj4mI3hhOwkJCQkJPHRpdGxlIGlkPSJ0aXRsZTMyMTI5Ij5TaGVldC4zNTg4PC90aXRsZT4mI3hhOwkJCQkJJiN4YTsJCQkJCQk8cGF0aCBpZD0icGF0aDMyMTMxIiBpbmtzY2FwZTpjb25uZWN0b3ItY3VydmF0dXJlPSIwIiBzdHlsZT0iZmlsbDpub25lO3N0cm9rZTojMkVBMzZFO3N0cm9rZS13aWR0aDozLjc1O3N0cm9rZS1saW5lY2FwOnJvdW5kO3N0cm9rZS1saW5lam9pbjpyb3VuZDtzdHJva2UtbWl0ZXJsaW1pdDozOyIgZD0iICAgICAgIE0wLDYxLjIxaDI1Ljk0Ii8+JiN4YTsJCQkJPC9nPiYjeGE7CQkJCTxnIGlkPSJzaGFwZTM1ODktNzQiIHRyYW5zZm9ybT0idHJhbnNsYXRlKDAsLTE5Ljg1MDYpIj4mI3hhOwkJCQkJPHRpdGxlIGlkPSJ0aXRsZTMyMTM0Ij5TaGVldC4zNTg5PC90aXRsZT4mI3hhOwkJCQkJJiN4YTsJCQkJCQk8cGF0aCBpZD0icGF0aDMyMTM2IiBpbmtzY2FwZTpjb25uZWN0b3ItY3VydmF0dXJlPSIwIiBzdHlsZT0iZmlsbDpub25lO3N0cm9rZTojMkVBMzZFO3N0cm9rZS13aWR0aDozLjc1O3N0cm9rZS1saW5lY2FwOnJvdW5kO3N0cm9rZS1saW5lam9pbjpyb3VuZDtzdHJva2UtbWl0ZXJsaW1pdDozOyIgZD0iICAgICAgIE0wLDYxLjIxaDEwLjg2Ii8+JiN4YTsJCQkJPC9nPiYjeGE7CQkJCTxnIGlkPSJzaGFwZTM1OTAtNzciPiYjeGE7CQkJCQk8dGl0bGUgaWQ9InRpdGxlMzIxMzkiPlNoZWV0LjM1OTA8L3RpdGxlPiYjeGE7CQkJCQkmI3hhOwkJCQkJCTxwYXRoIGlkPSJwYXRoMzIxNDEiIGlua3NjYXBlOmNvbm5lY3Rvci1jdXJ2YXR1cmU9IjAiIHN0eWxlPSJmaWxsOm5vbmU7c3Ryb2tlOiMyRUEzNkU7c3Ryb2tlLXdpZHRoOjMuNzU7c3Ryb2tlLWxpbmVjYXA6cm91bmQ7c3Ryb2tlLWxpbmVqb2luOnJvdW5kO3N0cm9rZS1taXRlcmxpbWl0OjM7IiBkPSIgICAgICAgTTAsNjEuMjFoMTUuMDgiLz4mI3hhOwkJCQk8L2c+JiN4YTsJCQkJPGcgaWQ9InNoYXBlMzU5MS04MCIgdHJhbnNmb3JtPSJ0cmFuc2xhdGUoMCwtMTQuNzQ2MSkiPiYjeGE7CQkJCQk8dGl0bGUgaWQ9InRpdGxlMzIxNDQiPlNoZWV0LjM1OTE8L3RpdGxlPiYjeGE7CQkJCQkmI3hhOwkJCQkJCTxwYXRoIGlkPSJwYXRoMzIxNDYiIGlua3NjYXBlOmNvbm5lY3Rvci1jdXJ2YXR1cmU9IjAiIHN0eWxlPSJmaWxsOm5vbmU7c3Ryb2tlOiMyRUEzNkU7c3Ryb2tlLXdpZHRoOjMuNzU7c3Ryb2tlLWxpbmVjYXA6cm91bmQ7c3Ryb2tlLWxpbmVqb2luOnJvdW5kO3N0cm9rZS1taXRlcmxpbWl0OjM7IiBkPSIgICAgICAgTTAsNjEuMjFoMTguNyIvPiYjeGE7CQkJCTwvZz4mI3hhOwkJCQk8ZyBpZD0ic2hhcGUzNTkyLTgzIiB0cmFuc2Zvcm09InRyYW5zbGF0ZSgwLC05LjY0MTY0KSI+JiN4YTsJCQkJCTx0aXRsZSBpZD0idGl0bGUzMjE0OSI+U2hlZXQuMzU5MjwvdGl0bGU+JiN4YTsJCQkJCSYjeGE7CQkJCQkJPHBhdGggaWQ9InBhdGgzMjE1MSIgaW5rc2NhcGU6Y29ubmVjdG9yLWN1cnZhdHVyZT0iMCIgc3R5bGU9ImZpbGw6bm9uZTtzdHJva2U6IzJFQTM2RTtzdHJva2Utd2lkdGg6My43NTtzdHJva2UtbGluZWNhcDpyb3VuZDtzdHJva2UtbGluZWpvaW46cm91bmQ7c3Ryb2tlLW1pdGVybGltaXQ6MzsiIGQ9IiAgICAgICBNMCw2MS4yMWgzLjYyIi8+JiN4YTsJCQkJPC9nPiYjeGE7CQkJCTxnIGlkPSJzaGFwZTM1OTMtODYiIHRyYW5zZm9ybT0idHJhbnNsYXRlKDkuNjUzNzcsLTkuNjQxNjQpIj4mI3hhOwkJCQkJPHRpdGxlIGlkPSJ0aXRsZTMyMTU0Ij5TaGVldC4zNTkzPC90aXRsZT4mI3hhOwkJCQkJJiN4YTsJCQkJCQk8cGF0aCBpZD0icGF0aDMyMTU2IiBpbmtzY2FwZTpjb25uZWN0b3ItY3VydmF0dXJlPSIwIiBzdHlsZT0iZmlsbDpub25lO3N0cm9rZTojODBEOEE5O3N0cm9rZS13aWR0aDozLjc1O3N0cm9rZS1saW5lY2FwOnJvdW5kO3N0cm9rZS1saW5lam9pbjpyb3VuZDtzdHJva2UtbWl0ZXJsaW1pdDozOyIgZD0iICAgICAgIE0wLDYxLjIxaDYuNjQiLz4mI3hhOwkJCQk8L2c+JiN4YTsJCQkJPGcgaWQ9InNoYXBlMzU5NC04OSIgdHJhbnNmb3JtPSJ0cmFuc2xhdGUoMTYuMjkxMSwtMTkuODUwNikiPiYjeGE7CQkJCQk8dGl0bGUgaWQ9InRpdGxlMzIxNTkiPlNoZWV0LjM1OTQ8L3RpdGxlPiYjeGE7CQkJCQkmI3hhOwkJCQkJCTxwYXRoIGlkPSJwYXRoMzIxNjEiIGlua3NjYXBlOmNvbm5lY3Rvci1jdXJ2YXR1cmU9IjAiIHN0eWxlPSJmaWxsOm5vbmU7c3Ryb2tlOiM4MEQ4QTk7c3Ryb2tlLXdpZHRoOjMuNzU7c3Ryb2tlLWxpbmVjYXA6cm91bmQ7c3Ryb2tlLWxpbmVqb2luOnJvdW5kO3N0cm9rZS1taXRlcmxpbWl0OjM7IiBkPSIgICAgICAgTTAsNjEuMjFoNC4yMiIvPiYjeGE7CQkJCTwvZz4mI3hhOwkJCQk8ZyBpZD0ic2hhcGUzNTk1LTkyIiB0cmFuc2Zvcm09InJvdGF0ZSgxODAsNi4wMzM1NSw1OC45Mzk1KSI+JiN4YTsJCQkJCTx0aXRsZSBpZD0idGl0bGUzMjE2NCI+U2hlZXQuMzU5NTwvdGl0bGU+JiN4YTsJCQkJCSYjeGE7CQkJCQkJPHBhdGggaWQ9InBhdGgzMjE2NiIgaW5rc2NhcGU6Y29ubmVjdG9yLWN1cnZhdHVyZT0iMCIgc3R5bGU9ImZpbGw6bm9uZTtzdHJva2U6IzJFQTM2RTtzdHJva2Utd2lkdGg6My43NTtzdHJva2UtbGluZWNhcDpyb3VuZDtzdHJva2UtbGluZWpvaW46cm91bmQ7c3Ryb2tlLW1pdGVybGltaXQ6MzsiIGQ9IiAgICAgICBNMCw2MS4yMWgyLjQxIi8+JiN4YTsJCQkJPC9nPiYjeGE7CQkJCTxnIGlkPSJzaGFwZTM1OTYtOTUiIHRyYW5zZm9ybT0icm90YXRlKDE4MCwxLjgxMDEyLDU4LjkzOTUpIj4mI3hhOwkJCQkJPHRpdGxlIGlkPSJ0aXRsZTMyMTY5Ij5TaGVldC4zNTk2PC90aXRsZT4mI3hhOwkJCQkJJiN4YTsJCQkJCQk8cGF0aCBpZD0icGF0aDMyMTcxIiBpbmtzY2FwZTpjb25uZWN0b3ItY3VydmF0dXJlPSIwIiBzdHlsZT0iZmlsbDpub25lO3N0cm9rZTojODBEOEE5O3N0cm9rZS13aWR0aDozLjc1O3N0cm9rZS1saW5lY2FwOnJvdW5kO3N0cm9rZS1saW5lam9pbjpyb3VuZDtzdHJva2UtbWl0ZXJsaW1pdDozOyIgZD0iICAgICAgIE0wLDYxLjIxaDMuNjIiLz4mI3hhOwkJCQk8L2c+JiN4YTsJCQkJPGcgaWQ9InNoYXBlMzU5Ny05OCIgdHJhbnNmb3JtPSJ0cmFuc2xhdGUoMjcuMTUxMiwtMTkuODUwNikiPiYjeGE7CQkJCQk8dGl0bGUgaWQ9InRpdGxlMzIxNzQiPlNoZWV0LjM1OTc8L3RpdGxlPiYjeGE7CQkJCQkmI3hhOwkJCQkJCTxwYXRoIGlkPSJwYXRoMzIxNzYiIGlua3NjYXBlOmNvbm5lY3Rvci1jdXJ2YXR1cmU9IjAiIHN0eWxlPSJmaWxsOm5vbmU7c3Ryb2tlOiMyRUEzNkU7c3Ryb2tlLXdpZHRoOjMuNzU7c3Ryb2tlLWxpbmVjYXA6cm91bmQ7c3Ryb2tlLWxpbmVqb2luOnJvdW5kO3N0cm9rZS1taXRlcmxpbWl0OjM7IiBkPSIgICAgICAgTTAsNjEuMjFoNC4yMiIvPiYjeGE7CQkJCTwvZz4mI3hhOwkJCQk8ZyBpZD0ic2hhcGUzNTk4LTEwMSIgdHJhbnNmb3JtPSJ0cmFuc2xhdGUoMzEuMzc0NiwtMjUuNTIyNSkiPiYjeGE7CQkJCQk8dGl0bGUgaWQ9InRpdGxlMzIxNzkiPlNoZWV0LjM1OTg8L3RpdGxlPiYjeGE7CQkJCQkmI3hhOwkJCQkJCTxwYXRoIGlkPSJwYXRoMzIxODEiIGlua3NjYXBlOmNvbm5lY3Rvci1jdXJ2YXR1cmU9IjAiIHN0eWxlPSJmaWxsOm5vbmU7c3Ryb2tlOiM4MEQ4QTk7c3Ryb2tlLXdpZHRoOjMuNzU7c3Ryb2tlLWxpbmVjYXA6cm91bmQ7c3Ryb2tlLWxpbmVqb2luOnJvdW5kO3N0cm9rZS1taXRlcmxpbWl0OjM7IiBkPSIgICAgICAgTTAsNjEuMjFoNS40MyIvPiYjeGE7CQkJCTwvZz4mI3hhOwkJCTwvZz4mI3hhOwkJPC9nPiYjeGE7CTwvZz4mI3hhOzwvZz4mI3hhOzwvc3ZnPg==;rounded=1;strokeColor=#9AC7BF;strokeWidth=3;fillColor=#9AC7BF;fontSize=12;fontColor=#333333;fontFamily=宋体;" parent="ETDHeams_zEWxF7L-lzj-778" vertex="1">
          <mxGeometry width="56" height="28" as="geometry" />
        </mxCell>
        <mxCell id="ETDHeams_zEWxF7L-lzj-780" value="台式" style="text;html=1;strokeColor=none;fillColor=none;align=center;verticalAlign=middle;whiteSpace=wrap;rounded=0;fontSize=15;fontFamily=宋体;fontStyle=1" parent="ETDHeams_zEWxF7L-lzj-778" vertex="1">
          <mxGeometry x="6" y="39.470000000000255" width="40" height="20" as="geometry" />
        </mxCell>
        <mxCell id="ETDHeams_zEWxF7L-lzj-781" value="" style="group;fontFamily=宋体;" parent="1" vertex="1" connectable="0">
          <mxGeometry x="620" y="72" width="47" height="64" as="geometry" />
        </mxCell>
        <mxCell id="ETDHeams_zEWxF7L-lzj-782" value="" style="shape=image;verticalLabelPosition=bottom;labelBackgroundColor=#ffffff;verticalAlign=top;aspect=fixed;imageAspect=0;image=data:image/svg+xml,PHN2ZyB4bWxuczpjYz0iaHR0cDovL2NyZWF0aXZlY29tbW9ucy5vcmcvbnMjIiB4bWxuczpkYz0iaHR0cDovL3B1cmwub3JnL2RjL2VsZW1lbnRzLzEuMS8iIHhtbG5zOmlua3NjYXBlPSJodHRwOi8vd3d3Lmlua3NjYXBlLm9yZy9uYW1lc3BhY2VzL2lua3NjYXBlIiB4bWxuczpyZGY9Imh0dHA6Ly93d3cudzMub3JnLzE5OTkvMDIvMjItcmRmLXN5bnRheC1ucyMiIHhtbG5zOnNvZGlwb2RpPSJodHRwOi8vc29kaXBvZGkuc291cmNlZm9yZ2UubmV0L0RURC9zb2RpcG9kaS0wLmR0ZCIgeG1sbnM6c3ZnPSJodHRwOi8vd3d3LnczLm9yZy8yMDAwL3N2ZyIgeG1sbnM9Imh0dHA6Ly93d3cudzMub3JnLzIwMDAvc3ZnIiB4bWxuczp4bGluaz0iaHR0cDovL3d3dy53My5vcmcvMTk5OS94bGluayIgdmVyc2lvbj0iMS4xIiBpZD0ic3ZnMzY3MTEiIGlua3NjYXBlOnZlcnNpb249IjAuOTIuMyAoMjQwNTU0NiwgMjAxOC0wMy0xMSkiIHNvZGlwb2RpOmRvY25hbWU9InRhYmxldF8zLnN2ZyIgeD0iMHB4IiB5PSIwcHgiIHZpZXdCb3g9IjAgMCA3Ny4wNyA1Ny41OSIgc3R5bGU9ImVuYWJsZS1iYWNrZ3JvdW5kOm5ldyAwIDAgNzcuMDcgNTcuNTk7IiB4bWw6c3BhY2U9InByZXNlcnZlIj4mI3hhOzxzb2RpcG9kaTpuYW1lZHZpZXcgYm9yZGVyY29sb3I9IiM2NjY2NjYiIGJvcmRlcm9wYWNpdHk9IjEiIGZpdC1tYXJnaW4tYm90dG9tPSIwIiBmaXQtbWFyZ2luLWxlZnQ9IjAiIGZpdC1tYXJnaW4tcmlnaHQ9IjAiIGZpdC1tYXJnaW4tdG9wPSIwIiBncmlkdG9sZXJhbmNlPSIxMCIgZ3VpZGV0b2xlcmFuY2U9IjEwIiBpZD0ibmFtZWR2aWV3MzY3MTMiIGlua3NjYXBlOmN1cnJlbnQtbGF5ZXI9InN2ZzM2NzExIiBpbmtzY2FwZTpjeD0iNTEuMzc4MjM5IiBpbmtzY2FwZTpjeT0iMzguMzkwOTI4IiBpbmtzY2FwZTpwYWdlb3BhY2l0eT0iMCIgaW5rc2NhcGU6cGFnZXNoYWRvdz0iMiIgaW5rc2NhcGU6d2luZG93LWhlaWdodD0iMTAxNyIgaW5rc2NhcGU6d2luZG93LW1heGltaXplZD0iMSIgaW5rc2NhcGU6d2luZG93LXdpZHRoPSIxOTIwIiBpbmtzY2FwZTp3aW5kb3cteD0iLTgiIGlua3NjYXBlOndpbmRvdy15PSItOCIgaW5rc2NhcGU6em9vbT0iMTEuMjkwMzMzIiBvYmplY3R0b2xlcmFuY2U9IjEwIiBwYWdlY29sb3I9IiNmZmZmZmYiIHNob3dncmlkPSJmYWxzZSI+JiN4YTsJPC9zb2RpcG9kaTpuYW1lZHZpZXc+JiN4YTs8ZyBpZD0iZzM2NzA5IiB0cmFuc2Zvcm09InRyYW5zbGF0ZSgwLDAuMDAxMDM3MzQpIj4mI3hhOwk8dGl0bGUgaWQ9InRpdGxlMzY1MjkiPlBhZ2UtMTwvdGl0bGU+JiN4YTsJPGcgaWQ9Imdyb3VwMzI1OS0xIj4mI3hhOwkJPHRpdGxlIGlkPSJ0aXRsZTM2NTMxIj5UYWJsZXQgIzM8L3RpdGxlPiYjeGE7CQk8ZyBpZD0ic2hhcGUzMjYwLTIiIHRyYW5zZm9ybT0idHJhbnNsYXRlKDAsLTMuMDg1MzcpIj4mI3hhOwkJCTx0aXRsZSBpZD0idGl0bGUzNjUzMyI+U2hlZXQuMzI2MDwvdGl0bGU+JiN4YTsJCQk8cGF0aCBpZD0icGF0aDM2NTM1IiBpbmtzY2FwZTpjb25uZWN0b3ItY3VydmF0dXJlPSIwIiBzdHlsZT0iZmlsbDojRTVCNUFDOyIgZD0iTTAsNTcuNTlDNS41Niw0Ni42LDUuNTYsNDYuNiw1LjU2LDQ2LjYgICAgIGMtMC41Mi0xLjMyLTAuNjgtMi43Ni0wLjY4LTQuMjRjMC01LjE3LDAtNS4xNywwLTUuMTdjMC01LjE4LDIuOTYtOS40Miw4LjMyLTkuNDJjNS4yLDAsOS40MSw0LjI0LDkuNDEsOS40MiAgICAgYzAsNS4xNywwLDUuMTcsMCw1LjE3YzAsMy43My0yLjA5LDYuOTctNS4zNyw4LjQ1Yy0xLjkyLDYuNzgtMS45Miw2Ljc4LTEuOTIsNi43OEgweiIvPiYjeGE7CQk8L2c+JiN4YTsJCTxnIGlkPSJzaGFwZTMyNjEtNCIgdHJhbnNmb3JtPSJ0cmFuc2xhdGUoOC43MzQzMSwtMTUuOTQxMSkiPiYjeGE7CQkJPHRpdGxlIGlkPSJ0aXRsZTM2NTM4Ij5TaGVldC4zMjYxPC90aXRsZT4mI3hhOwkJCTxwYXRoIGlkPSJwYXRoMzY1NDAiIGlua3NjYXBlOmNvbm5lY3Rvci1jdXJ2YXR1cmU9IjAiIHN0eWxlPSJmaWxsOiMzRjU3NjU7IiBkPSJNNjYuNzksNTYuNjNjMCwwLjQ4LTAuMzIsMC45Ni0wLjgsMC45NiAgICAgQzEsNTcuNTksMSw1Ny41OSwxLDU3LjU5Yy0wLjQ5LDAtMS0wLjQ4LTEtMC45NmMwLTM5LjY5LDAtMzkuNjksMC0zOS42OWMwLTAuNDgsMC41MS0xLDEtMWM2NC45OSwwLDY0Ljk5LDAsNjQuOTksMCAgICAgYzAuNDgsMCwwLjgsMC41MiwwLjgsMVY1Ni42M3oiLz4mI3hhOwkJPC9nPiYjeGE7CQk8ZyBpZD0ic2hhcGUzMjYyLTYiIHRyYW5zZm9ybT0idHJhbnNsYXRlKDEzLjg3MjEsLTIxLjU5NzYpIj4mI3hhOwkJCTx0aXRsZSBpZD0idGl0bGUzNjU0MyI+U2hlZXQuMzI2MjwvdGl0bGU+JiN4YTsJCQk8cGF0aCBpZD0icGF0aDM2NTQ1IiBpbmtzY2FwZTpjb25uZWN0b3ItY3VydmF0dXJlPSIwIiBzdHlsZT0iZmlsbDojNTlCNEQ5OyIgZD0iTTU2LjUyLDU2Ljc5YzAsMC40OC0wLjQ5LDAuOC0wLjgxLDAuOCAgICAgYy01NC44OCwwLTU0Ljg4LDAtNTQuODgsMGMtMC40OCwwLTAuODMtMC4zMi0wLjgzLTAuOGMwLTI5LjI1LDAtMjkuMjUsMC0yOS4yNWMwLTAuNDgsMC4zNS0wLjgsMC44My0wLjggICAgIGM1NC44OCwwLDU0Ljg4LDAsNTQuODgsMGMwLjMyLDAsMC44MSwwLjMyLDAuODEsMC44TDU2LjUyLDU2Ljc5eiIvPiYjeGE7CQk8L2c+JiN4YTsJCTxnIGlkPSJzaGFwZTMyNjMtOCIgdHJhbnNmb3JtPSJ0cmFuc2xhdGUoNS4zMzg1MywtMjkuMDMwNykiPiYjeGE7CQkJPHRpdGxlIGlkPSJ0aXRsZTM2NTQ4Ij5TaGVldC4zMjYzPC90aXRsZT4mI3hhOwkJCTxwYXRoIGlkPSJwYXRoMzY1NTAiIGlua3NjYXBlOmNvbm5lY3Rvci1jdXJ2YXR1cmU9IjAiIHN0eWxlPSJmaWxsOiNFNUI1QUM7IiBkPSJNNi43LDUwLjYzYzAuODEsMC44MywwLjgxLDEuOTksMCwyLjgzICAgICBjLTMuMzcsMy41My0zLjM3LDMuNTMtMy4zNywzLjUzYy0wLjgsMC44NC0yLjA5LDAuODQtMi43MywwYy0wLjgtMC42Ny0wLjgtMS45OSwwLTIuODZjNC44Mi01LjA0LDQuODItNS4wNCw0LjgyLTUuMDRMNi43LDUwLjYzICAgICB6Ii8+JiN4YTsJCTwvZz4mI3hhOwkJPGcgaWQ9InNoYXBlMzI2NC0xMCIgdHJhbnNmb3JtPSJ0cmFuc2xhdGUoNS4xMzc4MywtMjEuOTkyMikiPiYjeGE7CQkJPHRpdGxlIGlkPSJ0aXRsZTM2NTUzIj5TaGVldC4zMjY0PC90aXRsZT4mI3hhOwkJCTxwYXRoIGlkPSJwYXRoMzY1NTUiIGlua3NjYXBlOmNvbm5lY3Rvci1jdXJ2YXR1cmU9IjAiIHN0eWxlPSJmaWxsOiNFNUI1QUM7IiBkPSJNMCw1NS4xYzAsMS4yOCwwLjk2LDIuNDEsMi40MSwyLjQxbDAsMCAgICAgYzEuMjgsMCwyLjIxLDAuNDgsMi4yMS0wLjgxYzAtOS4yMiwwLTkuMjIsMC05LjIyYzAtMS4zMi0wLjkzLTAuOC0yLjIxLTAuOGwwLDBDMC45Niw0Ni42OCwwLDQ3LjY0LDAsNDkuMDlWNTUuMXoiLz4mI3hhOwkJPC9nPiYjeGE7CQk8ZyBpZD0ic2hhcGUzMjY1LTEyIiB0cmFuc2Zvcm09InRyYW5zbGF0ZSg5LjI0ODEsLTM1LjU4OSkiPiYjeGE7CQkJPHRpdGxlIGlkPSJ0aXRsZTM2NTU4Ij5TaGVldC4zMjY1PC90aXRsZT4mI3hhOwkJCTxwYXRoIGlkPSJwYXRoMzY1NjAiIGlua3NjYXBlOmNvbm5lY3Rvci1jdXJ2YXR1cmU9IjAiIHN0eWxlPSJmaWxsOiNFRkQ5Q0I7IiBkPSJNMS42NCw1NS42NGMwLjQyLDAuNTIsMC40MiwwLjUyLDAuNDIsMC41MiAgICAgYy0wLjcxLDAuODctMC43MSwwLjg3LTAuNzEsMC44N0MxLjAzLDU3LjU0LDAuNDUsNTcuNywwLDU3LjU0TDEuNjQsNTUuNjR6Ii8+JiN4YTsJCTwvZz4mI3hhOwkJPGcgaWQ9InNoYXBlMzI2Ni0xNCIgdHJhbnNmb3JtPSJ0cmFuc2xhdGUoOC4yMjA1MywtNC42MjgwNSkiPiYjeGE7CQkJPHRpdGxlIGlkPSJ0aXRsZTM2NTYzIj5TaGVldC4zMjY2PC90aXRsZT4mI3hhOwkJCTxwYXRoIGlkPSJwYXRoMzY1NjUiIGlua3NjYXBlOmNvbm5lY3Rvci1jdXJ2YXR1cmU9IjAiIHN0eWxlPSJmaWxsOiNFNUI1QUM7IiBkPSJNMCwzNy4wMmM0LjUsMS4zMiw3LjcxLDUuNCw3LjcxLDEwLjI5ICAgICBjMCw0LjkyLTMuMjEsOS4xNi03LjcxLDEwLjI4VjM3LjAyeiIvPiYjeGE7CQk8L2c+JiN4YTsJCTxnIGlkPSJzaGFwZTMyNjctMTYiIHRyYW5zZm9ybT0idHJhbnNsYXRlKDE1LjkyNzMsLTExLjgyNzIpIj4mI3hhOwkJCTx0aXRsZSBpZD0idGl0bGUzNjU2OCI+U2hlZXQuMzI2NzwvdGl0bGU+JiN4YTsJCQk8cGF0aCBpZD0icGF0aDM2NTcwIiBpbmtzY2FwZTpjb25uZWN0b3ItY3VydmF0dXJlPSIwIiBzdHlsZT0iZmlsbDojQ0M4NjdGOyIgZD0iTTQuMzcsNTcuNTlDMCw1My40OCwwLDUzLjQ4LDAsNTMuNDggICAgIGM2LjY4LDAsNi42OCwwLDYuNjgsMEM2LjM2LDU1LjA5LDUuNTIsNTYuNSw0LjM3LDU3LjU5eiIvPiYjeGE7CQk8L2c+JiN4YTsJCTxnIGlkPSJzaGFwZTMyNjgtMTgiIHRyYW5zZm9ybT0idHJhbnNsYXRlKDE1LjY3MDQsLTM0LjE5NjEpIj4mI3hhOwkJCTx0aXRsZSBpZD0idGl0bGUzNjU3MyI+U2hlZXQuMzI2ODwvdGl0bGU+JiN4YTsJCQk8cGF0aCBpZD0icGF0aDM2NTc1IiBpbmtzY2FwZTpjb25uZWN0b3ItY3VydmF0dXJlPSIwIiBzdHlsZT0iZmlsbDojRkZGRkZGOyIgZD0iTTAsNDkuODh2Ny43MWg1MS44OXYtNy43MUgweiIvPiYjeGE7CQk8L2c+JiN4YTsJCTxnIGlkPSJzaGFwZTMyNjktMjAiIHRyYW5zZm9ybT0idHJhbnNsYXRlKDE5LjAxLC00OC44NTE2KSI+JiN4YTsJCQk8dGl0bGUgaWQ9InRpdGxlMzY1NzgiPlNoZWV0LjMyNjk8L3RpdGxlPiYjeGE7CQkJJiN4YTsJCQkJPHBhdGggaWQ9InBhdGgzNjU4MCIgaW5rc2NhcGU6Y29ubmVjdG9yLWN1cnZhdHVyZT0iMCIgc3R5bGU9ImZpbGw6bm9uZTtzdHJva2U6I0ZGRkZGRjtzdHJva2Utd2lkdGg6MS4yMjQ5O3N0cm9rZS1saW5lY2FwOnJvdW5kO3N0cm9rZS1saW5lam9pbjpyb3VuZDtzdHJva2UtbWl0ZXJsaW1pdDozOyIgZD0iICAgICBNMCw1Ny41OWg0NS42NiIvPiYjeGE7CQk8L2c+JiN4YTsJCTxnIGlkPSJzaGFwZTMyNzAtMjMiIHRyYW5zZm9ybT0idHJhbnNsYXRlKDE1LjQxMzUsLTMwLjMzOTQpIj4mI3hhOwkJCTx0aXRsZSBpZD0idGl0bGUzNjU4MyI+U2hlZXQuMzI3MDwvdGl0bGU+JiN4YTsJCQkmI3hhOwkJCQk8cGF0aCBpZD0icGF0aDM2NTg1IiBpbmtzY2FwZTpjb25uZWN0b3ItY3VydmF0dXJlPSIwIiBzdHlsZT0iZmlsbDpub25lO3N0cm9rZTojRkZGRkZGO3N0cm9rZS13aWR0aDoxLjIyNDk7c3Ryb2tlLWxpbmVjYXA6cm91bmQ7c3Ryb2tlLWxpbmVqb2luOnJvdW5kO3N0cm9rZS1taXRlcmxpbWl0OjM7IiBkPSIgICAgIE0wLDU3LjU5aDUyLjM3Ii8+JiN4YTsJCTwvZz4mI3hhOwkJPGcgaWQ9InNoYXBlMzI3MS0yNiIgdHJhbnNmb3JtPSJ0cmFuc2xhdGUoMTUuNDEzNSwtMjcuNzY4MykiPiYjeGE7CQkJPHRpdGxlIGlkPSJ0aXRsZTM2NTg4Ij5TaGVldC4zMjcxPC90aXRsZT4mI3hhOwkJCSYjeGE7CQkJCTxwYXRoIGlkPSJwYXRoMzY1OTAiIGlua3NjYXBlOmNvbm5lY3Rvci1jdXJ2YXR1cmU9IjAiIHN0eWxlPSJmaWxsOm5vbmU7c3Ryb2tlOiNGRkZGRkY7c3Ryb2tlLXdpZHRoOjEuMjI0OTtzdHJva2UtbGluZWNhcDpyb3VuZDtzdHJva2UtbGluZWpvaW46cm91bmQ7c3Ryb2tlLW1pdGVybGltaXQ6MzsiIGQ9IiAgICAgTTAsNTcuNTloNTIuMzciLz4mI3hhOwkJPC9nPiYjeGE7CQk8ZyBpZD0ic2hhcGUzMjcyLTI5IiB0cmFuc2Zvcm09InRyYW5zbGF0ZSgxNS40MTM1LC0yNS4xOTcyKSI+JiN4YTsJCQk8dGl0bGUgaWQ9InRpdGxlMzY1OTMiPlNoZWV0LjMyNzI8L3RpdGxlPiYjeGE7CQkJJiN4YTsJCQkJPHBhdGggaWQ9InBhdGgzNjU5NSIgaW5rc2NhcGU6Y29ubmVjdG9yLWN1cnZhdHVyZT0iMCIgc3R5bGU9ImZpbGw6bm9uZTtzdHJva2U6I0ZGRkZGRjtzdHJva2Utd2lkdGg6MS4yMjQ5O3N0cm9rZS1saW5lY2FwOnJvdW5kO3N0cm9rZS1saW5lam9pbjpyb3VuZDtzdHJva2UtbWl0ZXJsaW1pdDozOyIgZD0iICAgICBNMCw1Ny41OWg1Mi4zNyIvPiYjeGE7CQk8L2c+JiN4YTsJCTxnIGlkPSJzaGFwZTMyNzMtMzIiIHRyYW5zZm9ybT0idHJhbnNsYXRlKDMzLjU5NjYsLTE4LjUxMjIpIj4mI3hhOwkJCTx0aXRsZSBpZD0idGl0bGUzNjU5OCI+U2hlZXQuMzI3MzwvdGl0bGU+JiN4YTsJCQk8cGF0aCBpZD0icGF0aDM2NjAwIiBpbmtzY2FwZTpjb25uZWN0b3ItY3VydmF0dXJlPSIwIiBzdHlsZT0iZmlsbDojRTVCNUFDOyIgZD0iTTEyLjEzLDU0Ljg5Yy04LjY3LTguODMtOC42Ny04LjgzLTguNjctOC44MyAgICAgYy0wLjgtMC44MS0yLjA2LTAuODEtMi44NiwwYy0wLjgsMC44LTAuOCwxLjkyLDAsMi43M2M4LjcsOC44LDguNyw4LjgsOC43LDguOEwxMi4xMyw1NC44OXoiLz4mI3hhOwkJPC9nPiYjeGE7CQk8ZyBpZD0ic2hhcGUzMjc0LTM0IiB0cmFuc2Zvcm09InRyYW5zbGF0ZSgzMy45MDk3LC0yNi45MTA4KSI+JiN4YTsJCQk8dGl0bGUgaWQ9InRpdGxlMzY2MDMiPlNoZWV0LjMyNzQ8L3RpdGxlPiYjeGE7CQkJPHBhdGggaWQ9InBhdGgzNjYwNSIgaW5rc2NhcGU6Y29ubmVjdG9yLWN1cnZhdHVyZT0iMCIgc3R5bGU9ImZpbGw6I0YyRDNDQzsiIGQ9Ik0xLDU1LjEzYy0wLjQ5LDAuMjktMC44MSwwLjc3LTEsMS4wOSAgICAgYzEsMC45MywxLDAuOTMsMSwwLjkzYzAuNjQsMC42MSwxLjQ3LDAuNjEsMi4xMSwwYzAuNDktMC40OCwwLjQ5LTEuNDEsMC0xLjg2Yy0wLjk2LTEuMTMtMC45Ni0xLjEzLTAuOTYtMS4xMyAgICAgQzEuNjQsNTQuNDksMS4zMiw1NC44MSwxLDU1LjEzeiIvPiYjeGE7CQk8L2c+JiN4YTsJCTxnIGlkPSJzaGFwZTMyNzUtMzYiIHRyYW5zZm9ybT0idHJhbnNsYXRlKDM1LjU2ODEsLTI2LjczOTgpIj4mI3hhOwkJCTx0aXRsZSBpZD0idGl0bGUzNjYwOCI+U2hlZXQuMzI3NTwvdGl0bGU+JiN4YTsJCQk8cGF0aCBpZD0icGF0aDM2NjEwIiBpbmtzY2FwZTpjb25uZWN0b3ItY3VydmF0dXJlPSIwIiBzdHlsZT0iZmlsbDojRTBBM0EwOyIgZD0iTTAuNDYsNTYuMThjLTAuMzgsMC4zOS0wLjU4LDAuOC0wLjM4LDEuNDEgICAgIGMwLjM4LDAsMC45My0wLjE5LDEuMzEtMC42MWMwLjM5LTAuNDEsMC41NS0wLjgsMC4zOS0xLjQ0QzEuMzksNTUuNTQsMC44NSw1NS43NiwwLjQ2LDU2LjE4eiIvPiYjeGE7CQk8L2c+JiN4YTsJCTxnIGlkPSJzaGFwZTMyNzYtMzgiIHRyYW5zZm9ybT0idHJhbnNsYXRlKDM3Ljc2MzEsLTI0Ljk0KSI+JiN4YTsJCQk8dGl0bGUgaWQ9InRpdGxlMzY2MTMiPlNoZWV0LjMyNzY8L3RpdGxlPiYjeGE7CQkJJiN4YTsJCQkJPHBhdGggaWQ9InBhdGgzNjYxNSIgaW5rc2NhcGU6Y29ubmVjdG9yLWN1cnZhdHVyZT0iMCIgc3R5bGU9ImZpbGw6bm9uZTtzdHJva2U6I0NDODY3RjtzdHJva2Utd2lkdGg6MC42MTI0O3N0cm9rZS1saW5lY2FwOnJvdW5kO3N0cm9rZS1saW5lam9pbjpyb3VuZDtzdHJva2UtbWl0ZXJsaW1pdDozOyIgZD0iICAgICBNMS41NCw1Ni4wNWMtMC4yOSwwLTAuNzcsMC4xNi0xLjA2LDAuNDhDMC4xNiw1Ni44MiwwLDU3LjE0LDAsNTcuNTkiLz4mI3hhOwkJPC9nPiYjeGE7CQk8ZyBpZD0ic2hhcGUzMjc3LTQxIiB0cmFuc2Zvcm09InRyYW5zbGF0ZSgzOC4yNzY5LC0yNC40MjU4KSI+JiN4YTsJCQk8dGl0bGUgaWQ9InRpdGxlMzY2MTgiPlNoZWV0LjMyNzc8L3RpdGxlPiYjeGE7CQkJJiN4YTsJCQkJPHBhdGggaWQ9InBhdGgzNjYyMCIgaW5rc2NhcGU6Y29ubmVjdG9yLWN1cnZhdHVyZT0iMCIgc3R5bGU9ImZpbGw6bm9uZTtzdHJva2U6I0NDODY3RjtzdHJva2Utd2lkdGg6MC42MTI0O3N0cm9rZS1saW5lY2FwOnJvdW5kO3N0cm9rZS1saW5lam9pbjpyb3VuZDtzdHJva2UtbWl0ZXJsaW1pdDozOyIgZD0iICAgICBNMCw1Ny41OWMwLjQ4LDAsMC43Ny0wLjEzLDEuMDktMC40NXMwLjQ1LTAuNzcsMC40NS0xLjA5Ii8+JiN4YTsJCTwvZz4mI3hhOwkJPGcgaWQ9InNoYXBlMzI3OC00NCIgdHJhbnNmb3JtPSJ0cmFuc2xhdGUoMzguMjc2OSwtMjUuNDU0MykiPiYjeGE7CQkJPHRpdGxlIGlkPSJ0aXRsZTM2NjIzIj5TaGVldC4zMjc4PC90aXRsZT4mI3hhOwkJCSYjeGE7CQkJCTxwYXRoIGlkPSJwYXRoMzY2MjUiIGlua3NjYXBlOmNvbm5lY3Rvci1jdXJ2YXR1cmU9IjAiIHN0eWxlPSJmaWxsOm5vbmU7c3Ryb2tlOiNDQzg2N0Y7c3Ryb2tlLXdpZHRoOjAuNjEyNDtzdHJva2UtbGluZWNhcDpyb3VuZDtzdHJva2UtbGluZWpvaW46cm91bmQ7c3Ryb2tlLW1pdGVybGltaXQ6MzsiIGQ9IiAgICAgTTAuNTEsNTcuMDhjLTAuMTksMC0wLjI5LDAuMTMtMC4zOCwwLjIyQzAsNTcuNCwwLDU3LjUsMCw1Ny41OSIvPiYjeGE7CQk8L2c+JiN4YTsJCTxnIGlkPSJzaGFwZTMyNzktNDciIHRyYW5zZm9ybT0idHJhbnNsYXRlKDM4LjI3NjksLTI0Ljk0KSI+JiN4YTsJCQk8dGl0bGUgaWQ9InRpdGxlMzY2MjgiPlNoZWV0LjMyNzk8L3RpdGxlPiYjeGE7CQkJJiN4YTsJCQkJPHBhdGggaWQ9InBhdGgzNjYzMCIgaW5rc2NhcGU6Y29ubmVjdG9yLWN1cnZhdHVyZT0iMCIgc3R5bGU9ImZpbGw6bm9uZTtzdHJva2U6I0NDODY3RjtzdHJva2Utd2lkdGg6MC42MTI0O3N0cm9rZS1saW5lY2FwOnJvdW5kO3N0cm9rZS1saW5lam9pbjpyb3VuZDtzdHJva2UtbWl0ZXJsaW1pdDozOyIgZD0iICAgICBNMCw1Ny41OWMwLjIyLTAuMTYsMC40Mi0wLjE2LDAuNjQtMC4zMmMwLjE5LTAuMTksMC4zOS0wLjM1LDAuMzktMC43Ii8+JiN4YTsJCTwvZz4mI3hhOwkJPGcgaWQ9InNoYXBlMzI4MC01MCIgdHJhbnNmb3JtPSJ0cmFuc2xhdGUoNDEuMzU5NiwtMjEuODU0NykiPiYjeGE7CQkJPHRpdGxlIGlkPSJ0aXRsZTM2NjMzIj5TaGVldC4zMjgwPC90aXRsZT4mI3hhOwkJCSYjeGE7CQkJCTxwYXRoIGlkPSJwYXRoMzY2MzUiIGlua3NjYXBlOmNvbm5lY3Rvci1jdXJ2YXR1cmU9IjAiIHN0eWxlPSJmaWxsOm5vbmU7c3Ryb2tlOiNDQzg2N0Y7c3Ryb2tlLXdpZHRoOjAuNjEyNDtzdHJva2UtbGluZWNhcDpyb3VuZDtzdHJva2UtbGluZWpvaW46cm91bmQ7c3Ryb2tlLW1pdGVybGltaXQ6MzsiIGQ9IiAgICAgTTEuNTQsNTYuMDVjLTAuNDUsMC4xNi0wLjc3LDAuMzItMS4wNiwwLjY0QzAuMTYsNTYuOTgsMCw1Ny4zLDAsNTcuNTkiLz4mI3hhOwkJPC9nPiYjeGE7CQk8ZyBpZD0ic2hhcGUzMjgxLTUzIiB0cmFuc2Zvcm09InRyYW5zbGF0ZSg0MS44NzMzLC0yMC44MjYyKSI+JiN4YTsJCQk8dGl0bGUgaWQ9InRpdGxlMzY2MzgiPlNoZWV0LjMyODE8L3RpdGxlPiYjeGE7CQkJJiN4YTsJCQkJPHBhdGggaWQ9InBhdGgzNjY0MCIgaW5rc2NhcGU6Y29ubmVjdG9yLWN1cnZhdHVyZT0iMCIgc3R5bGU9ImZpbGw6bm9uZTtzdHJva2U6I0NDODY3RjtzdHJva2Utd2lkdGg6MC42MTI0O3N0cm9rZS1saW5lY2FwOnJvdW5kO3N0cm9rZS1saW5lam9pbjpyb3VuZDtzdHJva2UtbWl0ZXJsaW1pdDozOyIgZD0iICAgICBNMCw1Ny41OWMwLjQ4LDAsMC43Ny0wLjEzLDEuMDktMC40NXMwLjQ1LTAuNzcsMC40NS0xLjA5Ii8+JiN4YTsJCTwvZz4mI3hhOwkJPGcgaWQ9InNoYXBlMzI4Mi01NiIgdHJhbnNmb3JtPSJ0cmFuc2xhdGUoNDEuMzU5NiwtMjEuODU0NykiPiYjeGE7CQkJPHRpdGxlIGlkPSJ0aXRsZTM2NjQzIj5TaGVldC4zMjgyPC90aXRsZT4mI3hhOwkJCSYjeGE7CQkJCTxwYXRoIGlkPSJwYXRoMzY2NDUiIGlua3NjYXBlOmNvbm5lY3Rvci1jdXJ2YXR1cmU9IjAiIHN0eWxlPSJmaWxsOm5vbmU7c3Ryb2tlOiNDQzg2N0Y7c3Ryb2tlLXdpZHRoOjAuNjEyNDtzdHJva2UtbGluZWNhcDpyb3VuZDtzdHJva2UtbGluZWpvaW46cm91bmQ7c3Ryb2tlLW1pdGVybGltaXQ6MzsiIGQ9IiAgICAgTTEuMDMsNTcuMDhjLTAuMzIsMC0wLjUyLDAuMTMtMC42OCwwLjIyQzAuMTksNTcuNCwwLjE5LDU3LjUsMCw1Ny41OSIvPiYjeGE7CQk8L2c+JiN4YTsJCTxnIGlkPSJzaGFwZTMyODMtNTkiIHRyYW5zZm9ybT0idHJhbnNsYXRlKDQxLjg3MzMsLTIxLjM0MDUpIj4mI3hhOwkJCTx0aXRsZSBpZD0idGl0bGUzNjY0OCI+U2hlZXQuMzI4MzwvdGl0bGU+JiN4YTsJCQkmI3hhOwkJCQk8cGF0aCBpZD0icGF0aDM2NjUwIiBpbmtzY2FwZTpjb25uZWN0b3ItY3VydmF0dXJlPSIwIiBzdHlsZT0iZmlsbDpub25lO3N0cm9rZTojQ0M4NjdGO3N0cm9rZS13aWR0aDowLjYxMjQ7c3Ryb2tlLWxpbmVjYXA6cm91bmQ7c3Ryb2tlLWxpbmVqb2luOnJvdW5kO3N0cm9rZS1taXRlcmxpbWl0OjM7IiBkPSIgICAgIE0wLDU3LjU5YzAuMjIsMCwwLjQyLDAsMC42NC0wLjE5YzAuMTktMC4xOSwwLjM5LTAuNDIsMC4zOS0wLjgzIi8+JiN4YTsJCTwvZz4mI3hhOwkJPGcgaWQ9InNoYXBlMzI4NC02MiIgdHJhbnNmb3JtPSJ0cmFuc2xhdGUoNDQuMzg2MSwtMjEuMDgzMykiPiYjeGE7CQkJPHRpdGxlIGlkPSJ0aXRsZTM2NjUzIj5TaGVldC4zMjg0PC90aXRsZT4mI3hhOwkJCTxwYXRoIGlkPSJwYXRoMzY2NTUiIGlua3NjYXBlOmNvbm5lY3Rvci1jdXJ2YXR1cmU9IjAiIHN0eWxlPSJmaWxsOiNDQzg2N0Y7IiBkPSJNMTIuMTMsNTAuODhjLTEuMDktMS4xNi0xLjA5LTEuMTYtMS4wOS0xLjE2ICAgICBjLTAuOC0wLjg3LTIuMDktMC44Ny0yLjczLDBjLTEuNDUsMS41MS0xLjQ1LDEuNTEtMS40NSwxLjUxYy0wLjgtMC42Ny0xLjkyLTAuNjctMi43MywwLjE2Yy0xLjQ0LDEuNjctMS40NCwxLjY3LTEuNDQsMS42NyAgICAgYy0wLjgtMC4zMi0xLjYxLTAuMTYtMi4wOSwwLjUyYy0wLjgsMC42Ny0wLjgsMi4wMiwwLDIuODZjMS4xMywxLjE1LDEuMTMsMS4xNSwxLjEzLDEuMTVjMi4yNC0yLjM0LDIuMjQtMi4zNCwyLjI0LTIuMzQgICAgIGMwLjE2LDAuMTYsMC4xNiwwLjE2LDAuMTYsMC4xNmMwLjY1LTAuNDgsMC42NS0wLjQ4LDAuNjUtMC40OGMwLjQ4LDAuNDgsMC40OCwwLjQ4LDAuNDgsMC40OGMyLjI1LTIuMzUsMi4yNS0yLjM1LDIuMjUtMi4zNSAgICAgYzEuNiwxLjcxLDEuNiwxLjcxLDEuNiwxLjcxYzEuOTMtMi4xOSwxLjkzLTIuMTksMS45My0yLjE5Yy0wLjMyLTAuMTktMC4zMi0wLjE5LTAuMzItMC4xOUwxMi4xMyw1MC44OHoiLz4mI3hhOwkJPC9nPiYjeGE7CQk8ZyBpZD0ic2hhcGUzMjg1LTY0IiB0cmFuc2Zvcm09InRyYW5zbGF0ZSg0Mi42NDQsLTYuMTcwNzMpIj4mI3hhOwkJCTx0aXRsZSBpZD0idGl0bGUzNjY1OCI+U2hlZXQuMzI4NTwvdGl0bGU+JiN4YTsJCQk8cGF0aCBpZD0icGF0aDM2NjYwIiBpbmtzY2FwZTpjb25uZWN0b3ItY3VydmF0dXJlPSIwIiBzdHlsZT0iZmlsbDojRTVCNUFDOyIgZD0iTTEyLjY1LDU3LjU5bDguOTMtNS44OEwxMy43NCwzNmwtMy4wMSwyLjU3ICAgICBMNyw0MC41M2wtMy45NSwxLjY0TDAsNDQuNzFMMTIuNjUsNTcuNTl6Ii8+JiN4YTsJCTwvZz4mI3hhOwkJPGcgaWQ9InNoYXBlMzI4Ni02NiIgdHJhbnNmb3JtPSJ0cmFuc2xhdGUoNDUuNDEzNiwtMjAuMDU0OSkiPiYjeGE7CQkJPHRpdGxlIGlkPSJ0aXRsZTM2NjYzIj5TaGVldC4zMjg2PC90aXRsZT4mI3hhOwkJCTxwYXRoIGlkPSJwYXRoMzY2NjUiIGlua3NjYXBlOmNvbm5lY3Rvci1jdXJ2YXR1cmU9IjAiIHN0eWxlPSJmaWxsOiNFNUI1QUM7IiBkPSJNNC40Miw1NC42Yy0xLjA5LTEuMjUtMS4wOS0xLjI1LTEuMDktMS4yNSAgICAgYy0wLjgtMC45LTIuMDktMC45LTIuNzMsMGMtMC44LDAuOS0wLjgsMi4zMiwwLDMuMThjMC45NywxLjA2LDAuOTcsMS4wNiwwLjk3LDEuMDZMNC40Miw1NC42eiIvPiYjeGE7CQk8L2c+JiN4YTsJCTxnIGlkPSJzaGFwZTMyODctNjgiIHRyYW5zZm9ybT0idHJhbnNsYXRlKDQ5LjAxMDEsLTIyLjExMTgpIj4mI3hhOwkJCTx0aXRsZSBpZD0idGl0bGUzNjY2OCI+U2hlZXQuMzI4NzwvdGl0bGU+JiN4YTsJCQk8cGF0aCBpZD0icGF0aDM2NjcwIiBpbmtzY2FwZTpjb25uZWN0b3ItY3VydmF0dXJlPSIwIiBzdHlsZT0iZmlsbDojRTVCNUFDOyIgZD0iTTQuNDIsNTQuNzNjLTEuMDktMS4xMi0xLjA5LTEuMTItMS4wOS0xLjEyICAgICBjLTAuNjQtMC42NC0xLjkzLTAuNjQtMi43MywwYy0wLjgsMC44LTAuOCwyLjA5LDAsMi44OWMxLjEzLDEuMDksMS4xMywxLjA5LDEuMTMsMS4wOUw0LjQyLDU0LjczeiIvPiYjeGE7CQk8L2c+JiN4YTsJCTxnIGlkPSJzaGFwZTMyODgtNzAiIHRyYW5zZm9ybT0idHJhbnNsYXRlKDQ0Ljk5ODEsLTcuMTk5MTkpIj4mI3hhOwkJCTx0aXRsZSBpZD0idGl0bGUzNjY3MyI+U2hlZXQuMzI4ODwvdGl0bGU+JiN4YTsJCQk8cGF0aCBpZD0icGF0aDM2Njc1IiBpbmtzY2FwZTpjb25uZWN0b3ItY3VydmF0dXJlPSIwIiBzdHlsZT0iZmlsbDojRTVCNUFDOyIgZD0iTTEyLjAzLDU3LjU5YzAsMC03LjUxLTAuNDgtMTAuNTktMy43MiAgICAgYy0zLjc5LTQuMDksMS4xMi02LjU2LDEuMTItNi41NkwxMi4wMyw1Ny41OXoiLz4mI3hhOwkJPC9nPiYjeGE7CQk8ZyBpZD0ic2hhcGUzMjg5LTcyIiB0cmFuc2Zvcm09InRyYW5zbGF0ZSg0MS44NzEyLC0xMC41MjExKSI+JiN4YTsJCQk8dGl0bGUgaWQ9InRpdGxlMzY2NzgiPlNoZWV0LjMyODk8L3RpdGxlPiYjeGE7CQkJPHBhdGggaWQ9InBhdGgzNjY4MCIgaW5rc2NhcGU6Y29ubmVjdG9yLWN1cnZhdHVyZT0iMCIgc3R5bGU9ImZpbGw6I0U1QjVBQzsiIGQ9Ik03LjMyLDU0Ljc4YzAuNjUsMC42NCwwLjY1LDEuNzYtMC4xOSwyLjQxbDAsMCAgICAgYy0wLjY3LDAuNjQtMS44MywwLjQ4LTIuNS0wLjE2Yy00LjIxLTQuMzQtNC4yMS00LjM0LTQuMjEtNC4zNGMtMC42Ny0wLjY1LTAuNDgtMS43NywwLjE5LTIuNDFsMCwwICAgICBjMC42NC0wLjY4LDEuODMtMC41MiwyLjUxLDAuMTZMNy4zMiw1NC43OHoiLz4mI3hhOwkJPC9nPiYjeGE7CQk8ZyBpZD0ic2hhcGUzMjkwLTc0IiB0cmFuc2Zvcm09InRyYW5zbGF0ZSg0My44NTA1LC0xMy44ODQxKSI+JiN4YTsJCQk8dGl0bGUgaWQ9InRpdGxlMzY2ODMiPlNoZWV0LjMyOTA8L3RpdGxlPiYjeGE7CQkJPHBhdGggaWQ9InBhdGgzNjY4NSIgaW5rc2NhcGU6Y29ubmVjdG9yLWN1cnZhdHVyZT0iMCIgc3R5bGU9ImZpbGw6I0U1QjVBQzsiIGQ9Ik0wLjQ2LDU2Ljc5YzAsMCwxLjMyLTEuNDUtMC4xNi0yLjg5ICAgICBjLTEuNTEtMS40NSwzLjEyLDEuNDQsMy4xMiwxLjQ0Yy0xLjE2LDIuMjUtMS4xNiwyLjI1LTEuMTYsMi4yNUwwLjQ2LDU2Ljc5eiIvPiYjeGE7CQk8L2c+JiN4YTsJCTxnIGlkPSJzaGFwZTMyOTEtNzYiIHRyYW5zZm9ybT0idHJhbnNsYXRlKDM3LjUwNjIsLTE0LjYwMzMpIj4mI3hhOwkJCTx0aXRsZSBpZD0idGl0bGUzNjY4OCI+U2hlZXQuMzI5MTwvdGl0bGU+JiN4YTsJCQk8cGF0aCBpZD0icGF0aDM2NjkwIiBpbmtzY2FwZTpjb25uZWN0b3ItY3VydmF0dXJlPSIwIiBzdHlsZT0iZmlsbDojRTVCNUFDOyIgZD0iTTAuOCw1Mi44NUMwLDU0LjM5LDAsNTQuMzksMCw1NC4zOSAgICAgYzEuNDUsMC44NCwxLjQ1LDAuODQsMS40NSwwLjg0YzQuMjcsMi4yNSw0LjI3LDIuMjUsNC4yNywyLjI1YzAuNzcsMC4zMiwxLjczLDAsMi4yMS0wLjg3YzAuMjktMC42OCwwLTEuNy0wLjgtMi4yMiAgICAgYy00LjI3LTIuMjUtNC4yNy0yLjI1LTQuMjctMi4yNUMyLjA2LDUxLjYzLDEuMTIsNTEuOTgsMC44LDUyLjg1eiIvPiYjeGE7CQk8L2c+JiN4YTsJCTxnIGlkPSJzaGFwZTMyOTItNzgiIHRyYW5zZm9ybT0idHJhbnNsYXRlKDM3LjUwNjIsLTE2LjQ1NTMpIj4mI3hhOwkJCTx0aXRsZSBpZD0idGl0bGUzNjY5MyI+U2hlZXQuMzI5MjwvdGl0bGU+JiN4YTsJCQk8cGF0aCBpZD0icGF0aDM2Njk1IiBpbmtzY2FwZTpjb25uZWN0b3ItY3VydmF0dXJlPSIwIiBzdHlsZT0iZmlsbDojRjJEM0NDOyIgZD0iTTEuOTYsNTYuMjhjLTEuNDUtMC43NC0xLjQ1LTAuNzQtMS40NS0wLjc0ICAgICBDMCw1Ni4yOCwwLDU2LjI4LDAsNTYuMjhjMS40OCwwLjczLDEuNDgsMC43MywxLjQ4LDAuNzNjMS42LDAuNTgsMS42LDAuNTgsMS42LDAuNThDMi45Miw1Ny4wMSwyLjYsNTYuNTcsMS45Niw1Ni4yOHoiLz4mI3hhOwkJPC9nPiYjeGE7CQk8ZyBpZD0ic2hhcGUzMjkzLTgwIiB0cmFuc2Zvcm09InRyYW5zbGF0ZSg0MC41ODg5LC0xNi40NTUzKSI+JiN4YTsJCQk8dGl0bGUgaWQ9InRpdGxlMzY2OTgiPlNoZWV0LjMyOTM8L3RpdGxlPiYjeGE7CQkJPHBhdGggaWQ9InBhdGgzNjcwMCIgaW5rc2NhcGU6Y29ubmVjdG9yLWN1cnZhdHVyZT0iMCIgc3R5bGU9ImZpbGw6I0NDODY3RjsiIGQ9Ik0xLjkzLDU0Ljk5YzIuMTgsMi42LDIuMTgsMi42LDIuMTgsMi42ICAgICBzLTMuNjYsMC00LjExLTMuNkMxLjE5LDU0LjY3LDEuOTMsNTQuOTksMS45Myw1NC45OXoiLz4mI3hhOwkJPC9nPiYjeGE7CQk8ZyBpZD0ic2hhcGUzMjk0LTgyIiB0cmFuc2Zvcm09InRyYW5zbGF0ZSg1Mi40MDU5KSI+JiN4YTsJCQk8dGl0bGUgaWQ9InRpdGxlMzY3MDMiPlNoZWV0LjMyOTQ8L3RpdGxlPiYjeGE7CQkJPHBhdGggaWQ9InBhdGgzNjcwNSIgaW5rc2NhcGU6Y29ubmVjdG9yLWN1cnZhdHVyZT0iMCIgc3R5bGU9ImZpbGw6I0U1QjVBQzsiIGQ9Ik05LjM4LDQxLjE0bDE1LjI4LDExLjkyTDguMTksNTcuNTlMMCw0OC43OSAgICAgTDkuMzgsNDEuMTR6Ii8+JiN4YTsJCTwvZz4mI3hhOwk8L2c+JiN4YTs8L2c+JiN4YTs8L3N2Zz4=;rounded=1;strokeColor=#9AC7BF;strokeWidth=3;fillColor=#9AC7BF;fontSize=12;fontColor=#333333;fontFamily=宋体;" parent="ETDHeams_zEWxF7L-lzj-781" vertex="1">
          <mxGeometry x="-3" width="45.8" height="34.5" as="geometry" />
        </mxCell>
        <mxCell id="ETDHeams_zEWxF7L-lzj-783" value="平板" style="text;html=1;strokeColor=none;fillColor=none;align=center;verticalAlign=middle;whiteSpace=wrap;rounded=0;fontSize=15;fontFamily=宋体;fontStyle=1" parent="ETDHeams_zEWxF7L-lzj-781" vertex="1">
          <mxGeometry x="7" y="44" width="40" height="20" as="geometry" />
        </mxCell>
        <mxCell id="ETDHeams_zEWxF7L-lzj-784" value="" style="group;fontFamily=宋体;" parent="1" vertex="1" connectable="0">
          <mxGeometry x="770" y="74" width="40" height="64" as="geometry" />
        </mxCell>
        <mxCell id="ETDHeams_zEWxF7L-lzj-785" value="" style="shape=image;verticalLabelPosition=bottom;labelBackgroundColor=#ffffff;verticalAlign=top;aspect=fixed;imageAspect=0;image=data:image/svg+xml,PHN2ZyB4bWxuczpjYz0iaHR0cDovL2NyZWF0aXZlY29tbW9ucy5vcmcvbnMjIiB4bWxuczpkYz0iaHR0cDovL3B1cmwub3JnL2RjL2VsZW1lbnRzLzEuMS8iIHhtbG5zOmlua3NjYXBlPSJodHRwOi8vd3d3Lmlua3NjYXBlLm9yZy9uYW1lc3BhY2VzL2lua3NjYXBlIiB4bWxuczpyZGY9Imh0dHA6Ly93d3cudzMub3JnLzE5OTkvMDIvMjItcmRmLXN5bnRheC1ucyMiIHhtbG5zOnNvZGlwb2RpPSJodHRwOi8vc29kaXBvZGkuc291cmNlZm9yZ2UubmV0L0RURC9zb2RpcG9kaS0wLmR0ZCIgeG1sbnM6c3ZnPSJodHRwOi8vd3d3LnczLm9yZy8yMDAwL3N2ZyIgeG1sbnM9Imh0dHA6Ly93d3cudzMub3JnLzIwMDAvc3ZnIiB4bWxuczp4bGluaz0iaHR0cDovL3d3dy53My5vcmcvMTk5OS94bGluayIgdmVyc2lvbj0iMS4xIiBpZD0ic3ZnMjQ3ODciIGlua3NjYXBlOnZlcnNpb249IjAuOTIuMyAoMjQwNTU0NiwgMjAxOC0wMy0xMSkiIHNvZGlwb2RpOmRvY25hbWU9Im1vYmlsZV80LnN2ZyIgeD0iMHB4IiB5PSIwcHgiIHZpZXdCb3g9IjAgMCAzMS4zNSA0OS4wOSIgc3R5bGU9ImVuYWJsZS1iYWNrZ3JvdW5kOm5ldyAwIDAgMzEuMzUgNDkuMDk7IiB4bWw6c3BhY2U9InByZXNlcnZlIj4mI3hhOzxzb2RpcG9kaTpuYW1lZHZpZXcgYm9yZGVyY29sb3I9IiM2NjY2NjYiIGJvcmRlcm9wYWNpdHk9IjEiIGZpdC1tYXJnaW4tYm90dG9tPSIwIiBmaXQtbWFyZ2luLWxlZnQ9IjAiIGZpdC1tYXJnaW4tcmlnaHQ9IjAiIGZpdC1tYXJnaW4tdG9wPSIwIiBncmlkdG9sZXJhbmNlPSIxMCIgZ3VpZGV0b2xlcmFuY2U9IjEwIiBpZD0ibmFtZWR2aWV3MjQ3ODkiIGlua3NjYXBlOmN1cnJlbnQtbGF5ZXI9InN2ZzI0Nzg3IiBpbmtzY2FwZTpjeD0iMjAuODk4MTQzIiBpbmtzY2FwZTpjeT0iMzIuNzI3NjgxIiBpbmtzY2FwZTpwYWdlb3BhY2l0eT0iMCIgaW5rc2NhcGU6cGFnZXNoYWRvdz0iMiIgaW5rc2NhcGU6d2luZG93LWhlaWdodD0iMTAxNyIgaW5rc2NhcGU6d2luZG93LW1heGltaXplZD0iMSIgaW5rc2NhcGU6d2luZG93LXdpZHRoPSIxOTIwIiBpbmtzY2FwZTp3aW5kb3cteD0iLTgiIGlua3NjYXBlOndpbmRvdy15PSItOCIgaW5rc2NhcGU6em9vbT0iMTMuMjQ2NDc4IiBvYmplY3R0b2xlcmFuY2U9IjEwIiBwYWdlY29sb3I9IiNmZmZmZmYiIHNob3dncmlkPSJmYWxzZSI+JiN4YTsJPC9zb2RpcG9kaTpuYW1lZHZpZXc+JiN4YTs8ZyBpZD0iZzI0Nzg1IiB0cmFuc2Zvcm09InRyYW5zbGF0ZSgwLDJlLTQpIj4mI3hhOwk8dGl0bGUgaWQ9InRpdGxlMjQ2OTAiPlBhZ2UtMTwvdGl0bGU+JiN4YTsJPGcgaWQ9Imdyb3VwMzM1My0xIj4mI3hhOwkJPHRpdGxlIGlkPSJ0aXRsZTI0NjkyIj5Nb2JpbGUgIzQ8L3RpdGxlPiYjeGE7CQk8ZyBpZD0ic2hhcGUzMzU0LTIiIHRyYW5zZm9ybT0idHJhbnNsYXRlKDIyLjU0MTgsLTI2LjM1MDkpIj4mI3hhOwkJCTx0aXRsZSBpZD0idGl0bGUyNDY5NCI+U2hlZXQuMzM1NDwvdGl0bGU+JiN4YTsJCQk8cGF0aCBpZD0icGF0aDI0Njk2IiBpbmtzY2FwZTpjb25uZWN0b3ItY3VydmF0dXJlPSIwIiBzdHlsZT0iZmlsbDojQkM5MDZGOyIgZD0iTTEuOTksNDUuMjFDMC44NSw0NS4yMSwwLDQ2LjA2LDAsNDcuMTVsMCwwICAgICBjMCwxLjA5LDAuODUsMS45NCwxLjk5LDEuOTRjNC45MSwwLDQuOTEsMCw0LjkxLDBjMS4wNiwwLDEuOTEtMC44NSwxLjkxLTEuOTRsMCwwYzAtMS4wOS0wLjg1LTEuOTQtMS45MS0xLjk0TDEuOTksNDUuMjF6Ii8+JiN4YTsJCTwvZz4mI3hhOwkJPGcgaWQ9InNoYXBlMzM1NS00IiB0cmFuc2Zvcm09InRyYW5zbGF0ZSgyMi41NDE4LC0yMC40NDYyKSI+JiN4YTsJCQk8dGl0bGUgaWQ9InRpdGxlMjQ2OTkiPlNoZWV0LjMzNTU8L3RpdGxlPiYjeGE7CQkJPHBhdGggaWQ9InBhdGgyNDcwMSIgaW5rc2NhcGU6Y29ubmVjdG9yLWN1cnZhdHVyZT0iMCIgc3R5bGU9ImZpbGw6I0JDOTA2RjsiIGQ9Ik0xLjk5LDQ1LjIxQzAuODUsNDUuMjEsMCw0Ni4xMywwLDQ3LjE5bDAsMCAgICAgYzAsMS4wNywwLjg1LDEuOSwxLjk5LDEuOWM0LjkxLDAsNC45MSwwLDQuOTEsMGMxLjA2LDAsMS45MS0wLjgzLDEuOTEtMS45bDAsMGMwLTEuMDYtMC44NS0xLjk4LTEuOTEtMS45OEgxLjk5eiIvPiYjeGE7CQk8L2c+JiN4YTsJCTxnIGlkPSJzaGFwZTMzNTYtNiI+JiN4YTsJCQk8dGl0bGUgaWQ9InRpdGxlMjQ3MDQiPlNoZWV0LjMzNTY8L3RpdGxlPiYjeGE7CQkJPHBhdGggaWQ9InBhdGgyNDcwNiIgaW5rc2NhcGU6Y29ubmVjdG9yLWN1cnZhdHVyZT0iMCIgc3R5bGU9ImZpbGw6I0JDOTA2RjsiIGQ9Ik0wLDQ5LjA5YzUuOTctMTEuNzMsNS45Ny0xMS43Myw1Ljk3LTExLjczICAgICBjLTAuNTMtMS4zLTAuNzYtMi44Mi0wLjc2LTQuNDJjMC01LjMzLDAtNS4zMywwLTUuMzNjMC01LjQ5LDMuMTMtOS45OCw4LjcyLTkuOThjNS41MSwwLDEwLjAyLDQuNDksMTAuMDIsOS45OCAgICAgYzAsNS4zMywwLDUuMzMsMCw1LjMzYzAsMy45Ni0yLjI5LDcuMzktNS42Niw4Ljk5Yy0yLjA3LDcuMTYtMi4wNyw3LjE2LTIuMDcsNy4xNkgweiIvPiYjeGE7CQk8L2c+JiN4YTsJCTxnIGlkPSJzaGFwZTMzNTctOCIgdHJhbnNmb3JtPSJ0cmFuc2xhdGUoMjcuNTYwOSwtMzIuMjU1NikiPiYjeGE7CQkJPHRpdGxlIGlkPSJ0aXRsZTI0NzA5Ij5TaGVldC4zMzU3PC90aXRsZT4mI3hhOwkJCTxwYXRoIGlkPSJwYXRoMjQ3MTEiIGlua3NjYXBlOmNvbm5lY3Rvci1jdXJ2YXR1cmU9IjAiIGQ9Ik0wLDQ2LjQ0djIuNjVoMC43OXYtMi42NUgweiIvPiYjeGE7CQk8L2c+JiN4YTsJCTxnIGlkPSJzaGFwZTMzNTgtMTAiIHRyYW5zZm9ybT0idHJhbnNsYXRlKDI3LjU2MDksLTM4LjUxMjkpIj4mI3hhOwkJCTx0aXRsZSBpZD0idGl0bGUyNDcxNCI+U2hlZXQuMzM1ODwvdGl0bGU+JiN4YTsJCQk8cGF0aCBpZD0icGF0aDI0NzE2IiBpbmtzY2FwZTpjb25uZWN0b3ItY3VydmF0dXJlPSIwIiBkPSJNMCw0My45OHY1LjExaDAuNzl2LTUuMTFIMHoiLz4mI3hhOwkJPC9nPiYjeGE7CQk8ZyBpZD0ic2hhcGUzMzU5LTEyIiB0cmFuc2Zvcm09InRyYW5zbGF0ZSg4LjgwNTQsLTEzLjY2MDIpIj4mI3hhOwkJCTx0aXRsZSBpZD0idGl0bGUyNDcxOSI+U2hlZXQuMzM1OTwvdGl0bGU+JiN4YTsJCQk8cGF0aCBpZD0icGF0aDI0NzIxIiBpbmtzY2FwZTpjb25uZWN0b3ItY3VydmF0dXJlPSIwIiBzdHlsZT0iZmlsbDojOTY5Njk2OyIgZD0iTTAsMTMuNjZ2MzUuNDNoMTkuMDJWMTMuNjZIMHoiLz4mI3hhOwkJPC9nPiYjeGE7CQk8ZyBpZD0ic2hhcGUzMzYwLTE0IiB0cmFuc2Zvcm09InRyYW5zbGF0ZSg5Ljc3Mzk5LC0xNC4zNjUyKSI+JiN4YTsJCQk8dGl0bGUgaWQ9InRpdGxlMjQ3MjQiPlNoZWV0LjMzNjA8L3RpdGxlPiYjeGE7CQkJPHBhdGggaWQ9InBhdGgyNDcyNiIgaW5rc2NhcGU6Y29ubmVjdG9yLWN1cnZhdHVyZT0iMCIgZD0iTTAsNDguNDFjMCwwLjM4LDAuMzEsMC42OCwwLjY5LDAuNjhjMTUuNywwLDE1LjcsMCwxNS43LDAgICAgIGMwLjM5LDAsMC42OS0wLjMsMC42OS0wLjY4YzAtMzIuODQsMC0zMi44NCwwLTMyLjg0YzAtMC40Ni0wLjMtMC43Ni0wLjY5LTAuNzZjLTE1LjcsMC0xNS43LDAtMTUuNywwICAgICBjLTAuMzgsMC0wLjY5LDAuMy0wLjY5LDAuNzZMMCw0OC40MXoiLz4mI3hhOwkJPC9nPiYjeGE7CQk8ZyBpZD0ic2hhcGUzMzYxLTE2IiB0cmFuc2Zvcm09InRyYW5zbGF0ZSgxMS4yMjY5LC0yMC41Nzg0KSI+JiN4YTsJCQk8dGl0bGUgaWQ9InRpdGxlMjQ3MjkiPlNoZWV0LjMzNjE8L3RpdGxlPiYjeGE7CQkJPHBhdGggaWQ9InBhdGgyNDczMSIgaW5rc2NhcGU6Y29ubmVjdG9yLWN1cnZhdHVyZT0iMCIgc3R5bGU9ImZpbGw6IzAwMjA2MDsiIGQ9Ik0wLDI1LjI5djIzLjhoMTQuMTh2LTIzLjhIMHoiLz4mI3hhOwkJPC9nPiYjeGE7CQk8ZyBpZD0ic2hhcGUzMzYyLTE4IiB0cmFuc2Zvcm09InRyYW5zbGF0ZSgxMS4yMjY5LC0yMC41Nzg0KSI+JiN4YTsJCQk8dGl0bGUgaWQ9InRpdGxlMjQ3MzQiPlNoZWV0LjMzNjI8L3RpdGxlPiYjeGE7CQkJJiN4YTsJCQkJPHBhdGggaWQ9InBhdGgyNDczNiIgaW5rc2NhcGU6Y29ubmVjdG9yLWN1cnZhdHVyZT0iMCIgc3R5bGU9ImZpbGw6bm9uZTtzdHJva2U6IzMwMzAzMDtzdHJva2Utd2lkdGg6MC42MTI0O3N0cm9rZS1saW5lY2FwOnJvdW5kO3N0cm9rZS1saW5lam9pbjpyb3VuZDtzdHJva2UtbWl0ZXJsaW1pdDozOyIgZD0iICAgICBNMTQuMTgsMjUuMjlIMHYyMy44aDE0LjE4VjI1LjI5Ii8+JiN4YTsJCTwvZz4mI3hhOwkJPGcgaWQ9InNoYXBlMzM2My0yMSIgdHJhbnNmb3JtPSJ0cmFuc2xhdGUoMjMuNjg2NSwtNDYuMjY4MykiPiYjeGE7CQkJPHRpdGxlIGlkPSJ0aXRsZTI0NzM5Ij5TaGVldC4zMzYzPC90aXRsZT4mI3hhOwkJCTxwYXRoIGlkPSJwYXRoMjQ3NDEiIGlua3NjYXBlOmNvbm5lY3Rvci1jdXJ2YXR1cmU9IjAiIHN0eWxlPSJmaWxsOiM1MDUwNTA7IiBkPSJNMS41OCw0OC4zNGMwLTAuNDEtMC4zNS0wLjc1LTAuNzktMC43NSAgICAgQzAuMzYsNDcuNTksMCw0Ny45MywwLDQ4LjM0YzAsMC40MiwwLjM2LDAuNzUsMC43OSwwLjc1QzEuMjMsNDkuMDksMS41OCw0OC43NiwxLjU4LDQ4LjM0eiIvPiYjeGE7CQk8L2c+JiN4YTsJCTxnIGlkPSJzaGFwZTMzNjQtMjMiIHRyYW5zZm9ybT0idHJhbnNsYXRlKDUuNDMwOTUsLTI3LjQ0NjYpIj4mI3hhOwkJCTx0aXRsZSBpZD0idGl0bGUyNDc0NCI+U2hlZXQuMzM2NDwvdGl0bGU+JiN4YTsJCQk8cGF0aCBpZD0icGF0aDI0NzQ2IiBpbmtzY2FwZTpjb25uZWN0b3ItY3VydmF0dXJlPSIwIiBzdHlsZT0iZmlsbDojQkM5MDZGOyIgZD0iTTcuMTksNDEuOTVjMC43NiwwLjc3LDAuNzYsMi4wNywwLDIuOTEgICAgIGMtMy42NywzLjY4LTMuNjcsMy42OC0zLjY3LDMuNjhjLTAuODQsMC43Ni0yLjE0LDAuNzYtMi45MSwwYy0wLjg1LTAuODUtMC44NS0yLjE1LDAtMi45MWM1LjEzLTUuMTQsNS4xMy01LjE0LDUuMTMtNS4xNCAgICAgTDcuMTksNDEuOTV6Ii8+JiN4YTsJCTwvZz4mI3hhOwkJPGcgaWQ9InNoYXBlMzM2NS0yNSIgdHJhbnNmb3JtPSJ0cmFuc2xhdGUoNS4xOTUxOSwtMTkuODcyNykiPiYjeGE7CQkJPHRpdGxlIGlkPSJ0aXRsZTI0NzQ5Ij5TaGVldC4zMzY1PC90aXRsZT4mI3hhOwkJCTxwYXRoIGlkPSJwYXRoMjQ3NTEiIGlua3NjYXBlOmNvbm5lY3Rvci1jdXJ2YXR1cmU9IjAiIHN0eWxlPSJmaWxsOiNCQzkwNkY7IiBkPSJNMCw0Ni40NGMwLDEuMzgsMS4xNCwyLjUzLDIuNTEsMi41M2wwLDAgICAgIGMxLjM3LDAsMi41MSwwLjYsMi41MS0wLjg1YzAtOS43NywwLTkuNzcsMC05Ljc3YzAtMS4zOC0xLjE0LTAuODQtMi41MS0wLjg0bDAsMEMxLjE0LDM3LjUxLDAsMzguNjYsMCw0MC4wM1Y0Ni40NHoiLz4mI3hhOwkJPC9nPiYjeGE7CQk8ZyBpZD0ic2hhcGUzMzY2LTI3IiB0cmFuc2Zvcm09InRyYW5zbGF0ZSgyNi4wNjQsLTE1LjE1ODQpIj4mI3hhOwkJCTx0aXRsZSBpZD0idGl0bGUyNDc1NCI+U2hlZXQuMzM2NjwvdGl0bGU+JiN4YTsJCQk8cGF0aCBpZD0icGF0aDI0NzU2IiBpbmtzY2FwZTpjb25uZWN0b3ItY3VydmF0dXJlPSIwIiBzdHlsZT0iZmlsbDojQkM5MDZGOyIgZD0iTTEuOTMsNDUuMjFDMC44NSw0NS4yMSwwLDQ2LjEzLDAsNDcuMTlsMCwwICAgICBjMCwxLjA3LDAuODUsMS45LDEuOTMsMS45YzAuNTUsMCwwLjU1LDAsMC41NSwwYzEuMDgsMCwxLjkyLTAuODMsMS45Mi0xLjlsMCwwYzAtMS4wNi0wLjg0LTEuOTgtMS45Mi0xLjk4SDEuOTN6Ii8+JiN4YTsJCTwvZz4mI3hhOwkJPGcgaWQ9InNoYXBlMzM2Ny0yOSIgdHJhbnNmb3JtPSJ0cmFuc2xhdGUoOS4yNDU2NywtMzQuMTY1NikiPiYjeGE7CQkJPHRpdGxlIGlkPSJ0aXRsZTI0NzU5Ij5TaGVldC4zMzY3PC90aXRsZT4mI3hhOwkJCTxwYXRoIGlkPSJwYXRoMjQ3NjEiIGlua3NjYXBlOmNvbm5lY3Rvci1jdXJ2YXR1cmU9IjAiIHN0eWxlPSJmaWxsOiNFNUQwQzE7IiBkPSJNMS45Miw0Ny4yMWMwLjQ2LDAuNTQsMC40NiwwLjU0LDAuNDYsMC41NCAgICAgYy0wLjc3LDAuNzgtMC43NywwLjc4LTAuNzcsMC43OEMxLjE2LDQ4Ljk5LDAuNjIsNDkuMTUsMCw0OS4wN0wxLjkyLDQ3LjIxeiIvPiYjeGE7CQk8L2c+JiN4YTsJCTxnIGlkPSJzaGFwZTMzNjgtMzEiIHRyYW5zZm9ybT0idHJhbnNsYXRlKDguNDUzMTgsLTEuODUwNzMpIj4mI3hhOwkJCTx0aXRsZSBpZD0idGl0bGUyNDc2NCI+U2hlZXQuMzM2ODwvdGl0bGU+JiN4YTsJCQk8cGF0aCBpZD0icGF0aDI0NzY2IiBpbmtzY2FwZTpjb25uZWN0b3ItY3VydmF0dXJlPSIwIiBzdHlsZT0iZmlsbDojQkM5MDZGOyIgZD0iTTAsMjcuNWM0LjcxLDEuMzcsOC4xOSw1LjcsOC4xOSwxMC43OSAgICAgYzAsNS4xNy0zLjQ4LDkuNDMtOC4xOSwxMC44VjI3LjV6Ii8+JiN4YTsJCTwvZz4mI3hhOwkJPGcgaWQ9InNoYXBlMzM2OS0zMyIgdHJhbnNmb3JtPSJ0cmFuc2xhdGUoMTYuNjQyMiwtOS4xNjU1NCkiPiYjeGE7CQkJPHRpdGxlIGlkPSJ0aXRsZTI0NzY5Ij5TaGVldC4zMzY5PC90aXRsZT4mI3hhOwkJCTxwYXRoIGlkPSJwYXRoMjQ3NzEiIGlua3NjYXBlOmNvbm5lY3Rvci1jdXJ2YXR1cmU9IjAiIHN0eWxlPSJmaWxsOiNBMDZCNDc7IiBkPSJNNC40NCw0OS4wOUMwLDQ0LjU5LDAsNDQuNTksMCw0NC41OSAgICAgYzYuOTYsMCw2Ljk2LDAsNi45NiwwQzYuNSw0Ni4zLDUuNTgsNDcuODUsNC40NCw0OS4wOXoiLz4mI3hhOwkJPC9nPiYjeGE7CQk8ZyBpZD0ic2hhcGUzMzcwLTM1IiB0cmFuc2Zvcm09InRyYW5zbGF0ZSgyMi4xMDE2LC0xNy4wOTczKSI+JiN4YTsJCQk8dGl0bGUgaWQ9InRpdGxlMjQ3NzQiPlNoZWV0LjMzNzA8L3RpdGxlPiYjeGE7CQkJPHBhdGggaWQ9InBhdGgyNDc3NiIgaW5rc2NhcGU6Y29ubmVjdG9yLWN1cnZhdHVyZT0iMCIgc3R5bGU9ImZpbGw6IzczNzM3MzsiIGQ9Ik0xLjA2LDQ4Ljc4YzAsMC4yMS0wLjE5LDAuMzEtMC4yOSwwLjMxICAgICBjLTAuNDgsMC0wLjQ4LDAtMC40OCwwQzAuMSw0OS4wOSwwLDQ4Ljk5LDAsNDguNzhsMCwwYzAtMC4xLDAuMS0wLjMxLDAuMjktMC4zMWMwLjQ4LDAsMC40OCwwLDAuNDgsMCAgICAgQzAuODcsNDguNDcsMS4wNiw0OC42OCwxLjA2LDQ4Ljc4eiIvPiYjeGE7CQk8L2c+JiN4YTsJCTxnIGlkPSJzaGFwZTMzNzEtMzciIHRyYW5zZm9ybT0idHJhbnNsYXRlKDE3LjM0NjYsLTE2LjgzMjkpIj4mI3hhOwkJCTx0aXRsZSBpZD0idGl0bGUyNDc3OSI+U2hlZXQuMzM3MTwvdGl0bGU+JiN4YTsJCQk8cGF0aCBpZD0icGF0aDI0NzgxIiBpbmtzY2FwZTpjb25uZWN0b3ItY3VydmF0dXJlPSIwIiBzdHlsZT0iZmlsbDojNzM3MzczOyIgZD0iTTIuMiw0OC41MmMwLDAuMzgtMC4xOSwwLjU3LTAuNTcsMC41NyAgICAgYy0xLjA1LDAtMS4wNSwwLTEuMDUsMEMwLjI5LDQ5LjA5LDAsNDguOSwwLDQ4LjUybDAsMGMwLTAuMjksMC4yOS0wLjU4LDAuNTgtMC41OGMxLjA1LDAsMS4wNSwwLDEuMDUsMCAgICAgQzIuMDEsNDcuOTQsMi4yLDQ4LjIzLDIuMiw0OC41MnoiLz4mI3hhOwkJPC9nPiYjeGE7CTwvZz4mI3hhOzwvZz4mI3hhOzwvc3ZnPg==;rounded=1;strokeColor=#9AC7BF;strokeWidth=3;fillColor=#9AC7BF;fontSize=12;fontColor=#333333;fontFamily=宋体;" parent="ETDHeams_zEWxF7L-lzj-784" vertex="1">
          <mxGeometry x="7.0300000000002" width="25.94" height="41" as="geometry" />
        </mxCell>
        <mxCell id="ETDHeams_zEWxF7L-lzj-786" value="手机" style="text;html=1;strokeColor=none;fillColor=none;align=center;verticalAlign=middle;whiteSpace=wrap;rounded=0;fontSize=15;fontFamily=宋体;fontStyle=1" parent="ETDHeams_zEWxF7L-lzj-784" vertex="1">
          <mxGeometry y="44" width="40" height="20" as="geometry" />
        </mxCell>
        <mxCell id="ETDHeams_zEWxF7L-lzj-787" value="" style="shape=image;html=1;verticalAlign=top;verticalLabelPosition=bottom;labelBackgroundColor=#ffffff;imageAspect=0;aspect=fixed;image=https://cdn2.iconfinder.com/data/icons/user-23/128/User_Generic_1.png;strokeColor=#000000;fillColor=#FFFFFF;fontSize=13;fontFamily=宋体;" parent="1" vertex="1">
          <mxGeometry x="274.5" y="14" width="50" height="50" as="geometry" />
        </mxCell>
        <mxCell id="ETDHeams_zEWxF7L-lzj-788" value="" style="shape=image;html=1;verticalAlign=top;verticalLabelPosition=bottom;labelBackgroundColor=#ffffff;imageAspect=0;aspect=fixed;image=https://cdn1.iconfinder.com/data/icons/user-avatar-20/64/69-wander_woman-128.png;strokeColor=#000000;fillColor=#FFFFFF;fontSize=13;fontFamily=宋体;" parent="1" vertex="1">
          <mxGeometry x="762" y="10" width="50" height="50" as="geometry" />
        </mxCell>
        <mxCell id="ETDHeams_zEWxF7L-lzj-789" value="" style="shape=image;html=1;verticalAlign=top;verticalLabelPosition=bottom;labelBackgroundColor=#ffffff;imageAspect=0;aspect=fixed;image=https://cdn1.iconfinder.com/data/icons/user-avatar-20/64/28-tom_boy-128.png;strokeColor=#000000;fillColor=#FFFFFF;fontSize=13;fontFamily=宋体;" parent="1" vertex="1">
          <mxGeometry x="434" y="14" width="50" height="50" as="geometry" />
        </mxCell>
        <mxCell id="ETDHeams_zEWxF7L-lzj-790" value="" style="shape=image;html=1;verticalAlign=top;verticalLabelPosition=bottom;labelBackgroundColor=#ffffff;imageAspect=0;aspect=fixed;image=https://cdn4.iconfinder.com/data/icons/avatar-vol-1-3/512/3-128.png;strokeColor=#000000;fillColor=#FFFFFF;fontSize=13;fontFamily=宋体;" parent="1" vertex="1">
          <mxGeometry x="619" y="10" width="50" height="50" as="geometry" />
        </mxCell>
        <mxCell id="ETDHeams_zEWxF7L-lzj-791" value="长江大保护应用" style="rounded=0;whiteSpace=wrap;html=1;fontSize=16;fontFamily=宋体;fontStyle=1;fontColor=#FFFFFF;fillColor=#B2BFBE;strokeColor=#B2BFBE;" parent="1" vertex="1">
          <mxGeometry x="399" y="213" width="124.5" height="34" as="geometry" />
        </mxCell>
        <mxCell id="ETDHeams_zEWxF7L-lzj-792" value="管理应用" style="rounded=0;whiteSpace=wrap;html=1;fontSize=16;fontFamily=宋体;fontStyle=1;fontColor=#FFFFFF;strokeColor=#B2BFBE;fillColor=#B2BFBE;" parent="1" vertex="1">
          <mxGeometry x="738.5" y="213" width="120" height="34" as="geometry" />
        </mxCell>
        <mxCell id="ETDHeams_zEWxF7L-lzj-793" value="缓存" style="rounded=0;whiteSpace=wrap;html=1;fillColor=#FFFFFF;fontSize=15;fontFamily=宋体;fontColor=#30588C;fontStyle=1;strokeColor=#B6DBF2;" parent="1" vertex="1">
          <mxGeometry x="762" y="812.5" width="107" height="33" as="geometry" />
        </mxCell>
      </root>
    </mxGraphModel>
  </diagram>
</mxfile>
